<svg width="343" height="221" viewBox="0 0 343 221" fill="none" xmlns="http://www.w3.org/2000/svg">
<g clip-path="url(#clip0_10404_43172)">
<path d="M343.07 0H0.0703125V221H343.07V0Z" fill="#F28538"/>
<path d="M343.07 0H0.0703125V221H343.07V0Z" fill="#F28538"/>
<g opacity="0.85">
<g style="mix-blend-mode:multiply">
<path d="M82.9979 128.579C82.7431 128.388 82.4374 128.277 82.1196 128.26C81.8017 128.243 81.4859 128.32 81.212 128.483C80.9381 128.645 80.7184 128.884 80.5806 129.171C80.4428 129.458 80.3931 129.78 80.4378 130.095C80.4825 130.41 80.6195 130.705 80.8317 130.942C81.0438 131.18 81.3215 131.349 81.6296 131.428C81.9378 131.508 82.2627 131.495 82.5633 131.39C82.8638 131.285 83.1266 131.093 83.3184 130.839C83.5743 130.497 83.6843 130.067 83.6242 129.643C83.5642 129.22 83.339 128.837 82.9979 128.579Z" fill="#C3670B"/>
</g>
<g style="mix-blend-mode:multiply">
<path d="M-1.33727 164.714C-2.90497 163.988 -4.56675 163.487 -6.27394 163.224C-7.14002 163.094 -8.0061 163.016 -8.82022 162.938C-9.63433 162.86 -10.5524 162.869 -11.3665 162.938C-13.0619 162.991 -14.7477 163.214 -16.3984 163.605C-14.6663 163.873 -13.0554 164.003 -11.4098 164.177C-9.76425 164.35 -8.13601 164.532 -6.53376 164.809C-4.93088 165.053 -3.34762 165.412 -1.79629 165.883C-0.22126 166.309 1.25162 167.048 2.53412 168.057C1.64068 166.552 0.28182 165.378 -1.33727 164.714Z" fill="#C3670B"/>
</g>
<g style="mix-blend-mode:multiply">
<path d="M7.3554 181.305C6.66126 183.725 5.67534 186.051 4.41938 188.233C1.88371 192.62 -1.3855 196.54 -5.24609 199.821C-2.92648 198.643 -0.807395 197.105 1.033 195.266C2.90251 193.413 4.50826 191.312 5.80511 189.021C6.45563 187.869 7.03413 186.677 7.53728 185.453C7.98586 184.211 8.34193 182.937 8.60256 181.642C9.13231 179.077 9.20852 176.439 8.82774 173.848C8.56518 176.373 8.07235 178.869 7.3554 181.305Z" fill="#C3670B"/>
</g>
<g style="mix-blend-mode:multiply">
<path d="M99.516 127.904L98.2342 128.12C96.3994 128.459 94.5395 128.644 92.674 128.675C92.927 127.937 93.2641 127.231 93.6786 126.57C93.9938 126.065 94.3379 125.58 94.7093 125.115C95.0742 124.646 95.4645 124.198 95.8785 123.772L97.1257 122.517L95.3935 122.248C93.2417 121.941 91.0714 121.782 88.8979 121.772C86.75 121.729 84.5675 121.772 82.4715 121.919C78.2123 122.168 73.9704 122.657 69.7661 123.383C67.3324 123.79 64.9161 124.249 62.5083 124.803C59.2007 123.111 55.7149 121.792 52.1154 120.871C48.5632 119.951 44.9216 119.42 41.2547 119.286C37.5989 119.157 33.9409 119.468 30.3594 120.213C26.7708 120.984 23.2833 122.166 19.9664 123.738L18.3555 124.491L20.0357 125.21C21.4228 125.757 22.7329 126.482 23.933 127.367C24.4203 127.699 24.7925 128.174 24.9983 128.726C25.0869 129.277 24.9958 129.842 24.7385 130.337C24.3882 131.14 24.1409 131.984 24.0023 132.849C23.8666 133.787 23.9137 134.743 24.1409 135.664C24.3838 136.575 24.7791 137.439 25.3101 138.219C25.6102 138.667 25.9431 139.093 26.3061 139.492C25.0676 140.358 23.8551 141.319 22.6772 142.298C19.3895 145.058 16.3759 148.13 13.6786 151.47C11.1169 154.616 8.92304 158.045 7.1397 161.69C4.65594 160.217 1.97628 159.103 -0.819595 158.381C-3.83338 157.591 -6.9166 157.095 -10.0261 156.9C-13.1284 156.709 -16.2406 156.753 -19.3364 157.03C-20.8781 157.151 -22.411 157.402 -23.9527 157.576L-28.5256 158.442L-29.4609 158.606L-28.9933 159.472C-26.2894 164.237 -22.515 168.308 -17.968 171.364C-15.7321 172.909 -13.3711 174.265 -10.9095 175.417C-8.70158 176.45 -6.42047 177.318 -4.08473 178.015C-5.57439 182.207 -6.89949 186.434 -7.99076 190.755C-8.56237 193.05 -9.09068 195.354 -9.4631 197.684C-9.88373 200.051 -10.0867 202.451 -10.0694 204.855V205.808L-9.11666 205.695C-5.58109 205.304 -2.14531 204.277 1.02516 202.664C4.19282 201.012 6.9943 198.738 9.2616 195.978C11.5157 193.233 13.3168 190.145 14.5967 186.832C15.7598 183.901 16.571 180.843 17.013 177.721C20.6653 178.222 24.3553 178.394 28.0383 178.232C32.0914 178.067 36.1239 177.566 40.0941 176.733C47.6835 175.141 54.985 172.398 61.7462 168.601C62.4131 169.467 63.1146 170.255 63.8594 171.052C65.2265 172.486 66.7756 173.735 68.467 174.767L70.4936 176.023L72.0699 174.101C73.4676 172.258 74.4379 170.128 74.9106 167.865C75.3098 165.869 75.4985 163.837 75.4736 161.802C75.4736 161.248 75.4216 160.702 75.387 160.165L79.3277 157.212L83.1384 154.025C85.6298 151.819 87.9678 149.446 90.1364 146.923C92.3294 144.398 94.2592 141.655 95.8958 138.738L97.0477 136.495C97.3682 135.716 97.7579 134.971 98.0264 134.165C98.6788 132.555 99.1184 130.866 99.3342 129.142L99.516 127.904ZM27.6312 136.565C27.2261 136.081 26.8988 135.538 26.6612 134.954C26.4501 134.368 26.3502 133.748 26.3667 133.126C26.4188 132.433 26.5705 131.75 26.8171 131.1C27.1928 130.149 27.2385 129.1 26.947 128.12C26.5686 127.207 25.9146 126.435 25.0763 125.912C24.2161 125.327 23.2957 124.836 22.3308 124.448C24.9938 123.189 27.7841 122.219 30.6538 121.555C34.1214 120.796 37.6751 120.505 41.22 120.689C44.7515 120.884 48.2438 121.527 51.613 122.603C53.3032 123.116 54.9533 123.753 56.5497 124.509C57.3465 124.881 58.1433 125.271 58.9228 125.695C55.7009 126.492 52.5051 127.427 49.3266 128.363C48.0249 127.212 46.5092 126.329 44.8662 125.764C43.1409 125.162 41.3322 124.832 39.5052 124.786C37.7074 124.751 35.9115 124.922 34.1528 125.297C33.2867 125.479 32.4206 125.739 31.5546 125.964L29.0429 126.83L31.6412 126.137C32.5073 125.981 33.3733 125.79 34.2394 125.669C35.9621 125.438 37.7054 125.403 39.4359 125.565C41.1495 125.738 42.8262 126.173 44.4072 126.856C45.5928 127.351 46.6966 128.022 47.681 128.848L44.9702 129.714C44.26 129.965 43.5498 130.242 42.8483 130.511C42.4007 129.923 41.802 129.468 41.1161 129.194C40.3119 128.862 39.4485 128.697 38.5785 128.709C36.9536 128.763 35.348 129.079 33.8237 129.645C35.3706 129.344 36.956 129.298 38.5179 129.506C39.2454 129.613 39.9437 129.866 40.5705 130.251C40.9152 130.459 41.2107 130.74 41.4366 131.074C37.07 132.861 32.8874 135.068 28.9477 137.664C28.453 137.353 28.0091 136.967 27.6312 136.521V136.565ZM96.1816 133.429C95.9218 134.174 95.5407 134.876 95.2289 135.603L94.103 137.699C92.4923 140.462 90.5999 143.051 88.4562 145.425C86.3262 147.83 84.0313 150.085 81.5881 152.171L77.8293 155.211L75.1272 157.16C75.0665 156.744 75.0232 156.294 74.9539 155.904C74.5997 153.963 74.0514 152.063 73.317 150.231H72.9966C73.3257 154 73.3257 157.791 72.9966 161.56C72.8297 163.436 72.5082 165.296 72.0352 167.12C71.6268 168.76 70.9288 170.315 69.974 171.71C69.8354 168.843 69.5842 165.985 69.1599 163.145C68.906 161.624 68.5736 160.118 68.1639 158.632C67.7982 157.127 67.1677 155.699 66.3018 154.414L66.1719 154.51C66.5307 155.978 66.7939 157.468 66.96 158.97C67.1332 160.442 67.3757 161.906 67.5836 163.396C67.7915 164.885 68.0946 166.358 68.4497 167.847C68.7477 169.179 69.1413 170.487 69.6275 171.762C68.31 170.931 67.072 169.98 65.9294 168.921C64.6488 167.73 63.4317 166.473 62.2832 165.154C61.1286 163.834 60.0472 162.452 59.044 161.014C58.0109 159.614 57.188 158.071 56.6017 156.432L56.2899 156.51C56.3815 158.396 56.8559 160.244 57.6843 161.941C58.3436 163.364 59.1078 164.736 59.9707 166.046C53.6161 169.76 46.7369 172.493 39.5658 174.152C35.7518 175.05 31.87 175.629 27.9603 175.885C24.0817 176.158 20.1849 176.013 16.3375 175.452L15.1163 175.252L15.0037 176.465C14.6588 179.779 13.8754 183.032 12.674 186.139C11.5091 189.267 9.85443 192.191 7.77194 194.8C5.69416 197.386 3.11686 199.528 0.19372 201.096C-2.46728 202.481 -5.33748 203.421 -8.30255 203.876C-8.27526 201.92 -8.10156 199.969 -7.7829 198.039C-7.43647 195.753 -6.91681 193.475 -6.37118 191.214C-5.2626 186.693 -3.8682 182.207 -2.31792 177.825L-2.02345 177.011L-2.88953 176.794C-5.42197 176.095 -7.89051 175.182 -10.2686 174.066C-12.657 172.959 -14.946 171.649 -17.1106 170.151C-21.2057 167.417 -24.6621 163.83 -27.2438 159.637L-23.7361 158.97C-22.2291 158.788 -20.7222 158.537 -19.2065 158.407C-16.1837 158.123 -13.1438 158.068 -10.1127 158.243C-7.09136 158.424 -4.09496 158.9 -1.16603 159.663C1.72954 160.382 4.49427 161.551 7.02711 163.127L7.71997 163.595L8.05775 162.85C9.85566 159.081 12.1099 155.547 14.7699 152.327C17.412 149.061 20.3647 146.059 23.5866 143.363C30.0794 137.985 37.4869 133.819 45.4552 131.065C50.4871 129.445 55.623 127.973 60.8108 126.786L61.1226 126.994L61.3305 126.674C64.2145 126.024 67.1072 125.427 69.9913 124.942C74.1479 124.245 78.3407 123.786 82.5495 123.565C84.6541 123.461 86.7587 123.417 88.8546 123.469C90.3789 123.469 91.9205 123.582 93.4188 123.755L93.2543 123.954C92.8354 124.476 92.445 125.019 92.0851 125.583C91.3255 126.747 90.7963 128.047 90.5261 129.411L90.3442 130.407L91.3575 130.485C92.5694 130.567 93.7861 130.55 94.9951 130.433C95.7313 130.372 96.4501 130.294 97.169 130.199C96.9289 131.301 96.5987 132.381 96.1816 133.429Z" fill="#C3670B"/>
</g>
<g style="mix-blend-mode:multiply">
<path d="M54.6089 136.668C48.5072 137.479 42.5864 139.315 37.0967 142.098C34.3748 143.535 31.784 145.207 29.3539 147.096C26.9543 149.022 24.7365 151.164 22.7284 153.496C20.7667 155.846 19.008 158.358 17.4713 161.005C15.975 163.661 14.6865 166.43 13.6172 169.285C14.3534 167.951 15.0029 166.591 15.7564 165.275C16.5099 163.958 17.2461 162.677 18.1381 161.429C19.7717 158.912 21.6143 156.536 23.6464 154.327C25.6966 152.153 27.9117 150.141 30.2719 148.308C32.657 146.51 35.1858 144.911 37.8328 143.527C43.1782 140.819 48.8961 138.919 54.7994 137.889C57.7585 137.352 60.7503 137.013 63.7547 136.876C66.767 136.688 69.789 136.72 72.7966 136.971C66.7893 135.898 60.6486 135.796 54.6089 136.668Z" fill="#C3670B"/>
</g>
<g style="mix-blend-mode:multiply">
<path d="M2.39492 185.454C3.13599 184.445 3.72 183.33 4.12709 182.146C4.95698 179.831 5.25305 177.359 4.99317 174.914C4.02316 177.183 3.40824 179.435 2.59412 181.609C2.22088 182.698 1.79307 183.767 1.31232 184.813C0.825214 185.88 0.224116 186.89 -0.480469 187.827C0.68211 187.323 1.67873 186.5 2.39492 185.454Z" fill="#C3670B"/>
</g>
<g style="mix-blend-mode:multiply">
<path d="M54.7042 141.416C52.5734 142.421 50.6057 143.74 48.8668 145.33C47.0789 146.879 45.7666 148.903 45.082 151.168C46.288 149.263 47.8423 147.603 49.6636 146.274C51.4563 144.929 53.3801 143.769 55.4057 142.81C57.415 141.814 59.5023 140.948 61.6242 140.125C63.7461 139.302 65.8853 138.558 68.0938 137.891C65.7744 137.968 63.4735 138.332 61.2431 138.973C58.9916 139.58 56.8023 140.398 54.7042 141.416Z" fill="#C3670B"/>
</g>
</g>
<g opacity="0.75">
<g style="mix-blend-mode:multiply">
<path d="M126.221 199.249L129.285 198.342L132.422 197.689C133.464 197.468 134.517 197.302 135.577 197.191C136.627 197.018 137.687 196.909 138.75 196.864L141.951 196.674L145.151 196.747C146.224 196.736 147.296 196.793 148.361 196.919L151.561 197.245C153.701 197.481 155.804 197.998 157.953 198.297C156.919 197.971 155.886 197.662 154.843 197.39C153.806 197.058 152.753 196.78 151.688 196.556C149.555 196.114 147.396 195.811 145.224 195.65C140.854 195.265 136.452 195.482 132.141 196.293C127.827 197.097 123.652 198.523 119.747 200.527C117.805 201.525 115.927 202.646 114.126 203.882C112.357 205.15 110.708 206.579 109.203 208.152C112.577 205.482 116.283 203.261 120.228 201.543C122.184 200.675 124.185 199.909 126.221 199.249Z" fill="#C3670B"/>
</g>
<g style="mix-blend-mode:multiply">
<path d="M150.489 209.286C149.882 209.222 149.274 209.195 148.676 209.15L145.049 208.914C142.62 208.914 140.181 208.914 137.751 209.114C132.894 209.452 128.082 210.26 123.381 211.525C118.67 212.742 114.109 214.478 109.781 216.702C112.048 215.841 114.314 215.061 116.644 214.417C117.796 214.073 118.956 213.774 120.117 213.447L123.626 212.622C128.306 211.6 133.054 210.918 137.833 210.582C140.217 210.337 142.61 210.374 144.995 210.31L148.621 210.437C149.818 210.437 151.015 210.564 152.248 210.691C153.481 210.818 154.632 210.891 155.829 211.054L159.374 211.661C159.963 211.761 160.571 211.824 161.187 211.96L162.946 212.377C164.116 212.668 165.285 212.93 166.473 213.193C161.946 211.432 157.226 210.214 152.411 209.567L150.489 209.286Z" fill="#C3670B"/>
</g>
<g style="mix-blend-mode:multiply">
<path d="M149.421 201.988C145.505 201.891 141.589 202.165 137.725 202.804C133.869 203.395 130.091 204.42 126.465 205.859C128.351 205.406 130.246 205.007 132.149 204.707C134.053 204.408 135.966 204.118 137.879 203.928C141.7 203.52 145.544 203.366 149.385 203.465C151.307 203.465 153.22 203.656 155.133 203.765C157.046 203.873 158.95 204.154 160.835 204.517C164.647 205.156 168.414 206.038 172.114 207.155C168.579 205.49 164.869 204.225 161.053 203.384C159.158 202.885 157.209 202.695 155.278 202.377C153.328 202.214 151.379 201.997 149.421 201.988Z" fill="#C3670B"/>
</g>
<g style="mix-blend-mode:multiply">
<path d="M196.673 231.871C196.61 231.255 196.592 230.629 196.483 230.058L196.138 228.245C196.012 227.637 195.803 227.066 195.649 226.431C195.495 225.797 195.313 225.253 195.087 224.691C193.411 220.142 191.185 215.816 188.459 211.807C185.78 207.778 182.693 204.035 179.248 200.638C172.294 193.947 163.835 188.607 154.334 186.195C149.636 184.972 144.815 184.282 139.963 184.137C135.096 183.906 130.22 184.312 125.457 185.343C115.821 187.374 106.993 192.191 100.071 199.196C99.1648 200.03 98.4304 201.009 97.5963 201.916L96.3995 203.267L95.3025 204.727C94.5772 205.706 93.8247 206.676 93.1357 207.673L91.1955 210.783C90.5328 211.809 89.9274 212.872 89.3822 213.965C88.8291 215.044 88.2398 216.123 87.714 217.211C86.7167 219.396 85.665 221.554 84.7312 223.775C82.803 228.169 81.0291 232.639 79.4092 237.184C77.7591 241.717 76.3448 246.296 74.6312 250.602C73.835 252.675 72.7416 254.62 71.3855 256.378C71.0549 256.796 70.6943 257.19 70.3066 257.556C69.9378 257.942 69.5375 258.297 69.1098 258.617C68.72 258.952 68.2485 259.297 67.768 259.632C67.2875 259.968 66.8614 260.312 66.3265 260.639C64.4044 261.962 62.4189 263.196 60.3971 264.338C59.3816 264.9 58.3571 265.444 57.3145 265.952C56.7977 266.206 56.281 266.45 55.7551 266.686L54.9754 267.022L54.5946 267.185L54.4042 267.257H54.3136C54.3136 267.257 54.4133 267.139 53.7514 267.566C53.5648 267.713 53.4079 267.894 53.2891 268.1V269.08C53.3124 269.34 53.3879 269.593 53.5109 269.823C53.6339 270.054 53.8021 270.257 54.0053 270.421C54.1061 270.496 54.2121 270.562 54.3226 270.621C54.3797 270.655 54.4405 270.682 54.504 270.702H54.5765L54.8757 270.811L55.465 271.02C55.8639 271.156 56.2538 271.274 56.6527 271.382C57.4368 271.617 58.2327 271.811 59.0371 271.963C60.6497 272.291 62.2878 272.48 63.933 272.525C67.3228 272.643 70.6813 271.841 73.6521 270.204C74.0147 269.986 74.3955 269.787 74.7491 269.56L75.7555 268.762C76.0819 268.49 76.4173 268.227 76.7346 267.946L77.5869 267.04L78.43 266.133C78.693 265.798 78.9015 265.435 79.1372 265.09C79.5724 264.401 80.0892 263.649 80.4246 263.041C81.8843 260.512 83.7611 258.064 86.2362 257.447C88.7113 256.831 91.676 257.982 94.3959 259.134C97.1158 260.285 100.099 261.663 103.145 262.624C104.65 263.114 106.227 263.531 107.742 263.839C109.256 264.147 110.797 264.519 112.347 264.8C115.476 265.431 118.669 265.68 121.858 265.544C125.065 265.338 128.224 264.66 131.232 263.531C134.179 262.387 137.034 261.02 139.773 259.442C141.142 258.662 142.493 257.828 143.798 257.012L147.706 254.419L151.541 251.699L155.385 249.251C160.599 246.131 166.68 244.778 172.725 245.394C178.77 246.009 184.454 248.561 188.931 252.669L189.683 253.349L190.209 252.579C193.014 248.543 194.992 243.992 196.03 239.188C196.572 236.789 196.789 234.328 196.673 231.871ZM97.424 206.331L98.4576 204.917L99.6 203.593C100.38 202.687 101.087 201.78 101.921 200.991C108.429 194.226 116.785 189.527 125.947 187.482C130.518 186.422 135.21 185.974 139.9 186.15C144.605 186.26 149.282 186.898 153.844 188.054C162.965 190.302 171.224 195.406 178.042 201.871C184.879 208.405 190.17 216.384 193.527 225.226C194.159 226.884 194.6 228.608 194.842 230.366C194.542 231.208 194.055 231.97 193.419 232.597C192.846 233.148 192.167 233.576 191.424 233.857C191.05 234 190.669 234.121 190.282 234.219C189.982 234.283 189.674 234.328 189.375 234.383C186.098 232.093 182.641 230.07 179.039 228.335C177.145 227.459 175.18 226.746 173.164 226.205C171.156 225.689 169.118 225.296 167.063 225.026C162.983 224.509 159.003 224.228 154.986 223.866C150.729 223.517 146.444 223.976 142.357 225.217C138.367 226.546 134.601 228.471 131.187 230.928C129.681 232.02 128.072 232.961 126.382 233.739C126.068 233.86 125.743 233.951 125.412 234.011C125.282 233.997 125.152 233.997 125.022 234.011C124.886 234.011 124.786 233.938 124.65 233.929C124.03 233.674 123.486 233.261 123.073 232.733C121.953 231.198 120.965 229.573 120.117 227.873C119.129 225.997 117.953 224.226 116.608 222.587C115.809 221.651 114.816 220.9 113.698 220.384C112.521 219.945 111.242 219.86 110.017 220.139C109.217 220.374 108.376 220.433 107.551 220.312C106.832 220.083 106.199 219.64 105.738 219.042L105.085 217.229C104.804 216.54 104.45 215.878 104.178 215.198C103.465 213.863 102.526 212.661 101.404 211.644C100.268 210.631 98.87 209.956 97.3696 209.695C96.6123 209.582 95.8423 209.582 95.0849 209.695L95.3841 209.196C96.0369 208.208 96.7441 207.283 97.424 206.331ZM55.7732 270.947C55.7279 270.974 55.7642 270.938 55.7732 270.947V270.947ZM78.1671 261.645C77.741 262.389 77.3421 262.896 76.9432 263.513C76.7346 263.803 76.5533 264.12 76.3357 264.419L75.6013 265.19L74.8851 265.97C74.6222 266.196 74.3321 266.396 74.0601 266.614L73.235 267.257C72.9358 267.439 72.6185 267.602 72.3284 267.774C69.8054 269.112 66.9661 269.739 64.1143 269.587C62.7028 269.518 61.299 269.336 59.9166 269.043C60.7416 268.599 61.5576 268.137 62.3645 267.701C64.4769 266.459 66.535 265.136 68.5205 263.721C69.0192 263.368 69.5178 263.014 69.9983 262.652C70.4789 262.289 70.9775 261.926 71.4852 261.482C72.0057 261.076 72.4937 260.631 72.9449 260.149C73.4037 259.656 73.8249 259.128 74.2051 258.572C74.744 257.884 75.2348 257.16 75.6739 256.405C75.6739 256.622 75.6739 256.84 75.7645 257.094C75.8263 257.552 75.999 257.988 76.2676 258.364C76.5362 258.74 76.8926 259.045 77.3058 259.252C78.012 259.576 78.8054 259.659 79.5633 259.487C79.058 260.18 78.5918 260.9 78.1671 261.645ZM78.9378 255.897C78.9589 255.887 78.9822 255.881 79.0058 255.881C79.0293 255.881 79.0526 255.887 79.0738 255.897H79.1372C78.965 255.942 78.8834 255.924 78.9106 255.897H78.9378ZM194.552 238.88C193.614 243.141 191.903 247.194 189.502 250.838C184.841 246.901 179.131 244.411 173.074 243.676C166.656 243.117 160.22 244.517 154.615 247.692L150.598 250.231L146.763 252.851L142.892 255.371C141.568 256.16 140.263 256.976 138.921 257.719C136.262 259.222 133.492 260.516 130.634 261.591C127.809 262.628 124.845 263.239 121.84 263.404C118.818 263.506 115.795 263.241 112.837 262.615C111.332 262.325 109.836 261.99 108.304 261.627C106.818 261.302 105.35 260.9 103.906 260.421C101.011 259.408 98.1691 258.246 95.3932 256.94C93.9227 256.266 92.4082 255.694 90.86 255.226C89.1692 254.7 87.3729 254.61 85.6378 254.963C84.9707 255.136 84.3257 255.386 83.7157 255.707C82.7191 255.711 81.7234 255.769 80.7329 255.879C80.3068 255.879 79.8716 255.961 79.518 255.97C79.518 255.779 79.518 255.58 79.518 255.371C79.518 253.748 79.518 251.935 79.4455 250.131C79.3971 249.412 79.3337 248.686 79.2551 247.955C80.3612 244.691 81.3494 241.445 82.4646 238.236C83.9877 233.751 85.662 229.318 87.4873 224.936C88.394 222.741 89.3731 220.584 90.3251 218.408C90.8237 217.338 91.3677 216.313 91.8936 215.262C92.3903 214.203 92.9473 213.174 93.5618 212.179L94.8764 210.003C95.9502 209.97 97.018 210.175 98.0026 210.605C98.9873 211.035 99.8642 211.678 100.57 212.487C101.461 213.501 102.175 214.656 102.683 215.905C102.909 216.558 103.154 217.193 103.353 217.846L103.861 219.84L103.916 220.031L104.033 220.194C104.708 221.239 105.69 222.05 106.844 222.515C107.455 222.728 108.101 222.826 108.748 222.805C109.328 222.805 109.881 222.714 110.344 222.669C111.103 222.546 111.882 222.637 112.592 222.932C113.273 223.324 113.865 223.851 114.333 224.482C115.446 226.023 116.4 227.672 117.18 229.405C118.055 231.345 119.108 233.199 120.326 234.945C121.126 236.027 122.213 236.865 123.463 237.365C123.816 237.49 124.18 237.581 124.551 237.637C124.919 237.637 125.291 237.656 125.666 237.692C126.334 237.629 126.992 237.482 127.624 237.257C129.619 236.431 131.514 235.382 133.272 234.129C136.435 231.936 139.882 230.186 143.517 228.925C147.14 227.798 150.937 227.343 154.723 227.583C158.731 227.791 162.774 227.955 166.7 228.272C168.644 228.415 170.578 228.669 172.493 229.034C174.387 229.443 176.25 229.983 178.069 230.647C181.771 232.096 185.374 233.783 188.858 235.697L189.13 235.842L189.33 235.788C189.765 235.661 190.236 235.552 190.635 235.407C191.061 235.245 191.476 235.054 191.877 234.836C192.683 234.403 193.395 233.815 193.972 233.104C194.392 232.587 194.72 232.001 194.942 231.373C195.179 233.882 195.038 236.412 194.525 238.88H194.552Z" fill="#C3670B"/>
</g>
</g>
<g opacity="0.85">
<g style="mix-blend-mode:multiply">
<path d="M376.369 208.562C371.974 203.498 366.946 199.02 361.407 195.24C355.939 191.406 350.169 188.021 344.155 185.118C341.144 183.657 338.06 182.35 334.916 181.201C331.743 179.995 328.447 179.135 325.089 178.638C323.4 178.398 321.698 178.263 319.993 178.233C318.289 178.213 316.586 178.281 314.89 178.435C312.039 178.727 309.211 179.21 306.425 179.88C306.73 178.303 306.965 176.707 307.123 175.105C307.607 169.995 307.488 164.846 306.768 159.763L306.676 159.116L306.037 159.243C300.819 160.17 295.686 161.524 290.69 163.29C287.477 164.466 284.408 166.005 281.544 167.877L281.642 167.581L281.379 167.992C279.824 169.017 278.347 170.155 276.957 171.395C276.274 172.025 275.592 172.689 274.952 173.374C273.99 169.8 272.425 166.417 270.324 163.371C267.859 159.896 264.721 156.953 261.095 154.717C253.943 150.221 245.949 147.581 237.957 145.387C229.921 143.172 221.658 141.886 213.329 141.555C209.172 141.358 205.007 141.385 200.854 141.6C196.685 141.799 192.532 142.244 188.416 142.935L187.846 143.032L187.811 143.605C187.619 147.869 187.865 152.142 188.546 156.357C189.187 160.563 190.186 164.706 191.533 168.742C194.227 176.857 198.426 184.391 203.91 190.951C209.45 197.482 216.087 202.995 223.524 207.242C230.605 211.245 238.151 214.365 245.991 216.531C245.576 217.581 245.175 218.644 244.815 219.699C243.874 222.414 243.06 225.163 242.376 227.947C240.994 233.5 240.035 239.151 239.509 244.85L239.431 245.689L240.266 245.593C246.105 244.913 252.114 244.997 258.03 243.737C261.003 243.121 263.882 242.116 266.592 240.747C269.294 239.366 271.808 237.643 274.071 235.62C275.238 234.632 276.322 233.55 277.311 232.384C277.778 231.766 278.273 231.175 278.705 230.537L279.901 228.556C281.14 226.217 281.991 223.692 282.421 221.081C284.095 224.849 286.382 228.314 289.19 231.334C292.57 234.998 296.557 238.052 300.975 240.362C305.454 242.682 310.394 243.974 315.436 244.143C320.382 244.294 325.325 243.752 330.121 242.533C334.889 241.385 339.55 239.829 344.052 237.884C346.305 236.939 348.513 235.883 350.7 234.792C352.901 233.709 355.035 232.494 357.091 231.156C361.205 228.48 364.97 225.303 368.301 221.699C369.957 219.877 371.481 217.939 372.862 215.9C374.217 213.833 375.412 211.667 376.438 209.419L376.643 208.96L376.369 208.562ZM291.086 164.425C295.799 162.738 300.645 161.445 305.572 160.558C306.178 165.331 306.227 170.158 305.717 174.943C305.186 179.925 303.827 184.784 301.696 189.319C301.41 189.918 301.103 190.519 300.789 191.105C299.706 191.886 298.53 192.53 297.289 193.021C295.273 193.809 293.182 194.388 291.049 194.75C289.986 194.949 288.922 195.092 287.83 195.236C286.738 195.38 285.625 195.552 284.542 195.801C283.447 196.023 282.368 196.319 281.311 196.685C280.783 196.875 280.266 197.096 279.764 197.349C279.247 197.584 278.781 197.917 278.391 198.33C278.85 198.033 279.354 197.814 279.883 197.681C280.403 197.529 280.937 197.405 281.472 197.302C282.535 197.082 283.613 196.932 284.698 196.795C286.848 196.515 289.043 196.422 291.267 196.029C293.492 195.646 295.65 194.943 297.673 193.94C298.486 193.533 299.258 193.048 299.977 192.491C299.319 193.609 298.616 194.684 297.867 195.715C296.413 197.682 294.687 199.432 292.741 200.914C289.027 203.61 284.725 205.384 280.19 206.089C279.4 204.614 278.374 203.277 277.154 202.133C276.819 201.862 276.443 201.598 276.124 201.348C276.551 199.55 277.23 197.822 278.14 196.214C279.113 194.399 280.211 192.653 281.424 190.989C282.431 189.605 283.503 188.268 284.595 186.938C286.043 186.807 287.477 186.641 288.91 186.447C290.669 186.197 292.388 185.976 294.166 185.628C295.986 185.239 297.686 184.417 299.12 183.231C300.577 182.1 301.613 180.514 302.065 178.725C301.188 180.217 299.972 181.481 298.515 182.415C297.107 183.346 295.536 184.005 293.885 184.357C293.087 184.55 292.169 184.683 291.308 184.864C290.447 185.044 289.572 185.225 288.719 185.454C287.436 185.77 286.16 186.127 284.9 186.561C286.339 184.825 287.828 183.116 289.316 181.407C292.034 178.26 294.795 175.147 297.47 171.945C298.829 170.351 300.138 168.736 301.411 167.074C302.041 166.243 302.656 165.392 303.243 164.527C303.874 163.687 304.386 162.764 304.763 161.784C303.63 163.525 302.318 165.144 300.849 166.613L296.657 171.182C294.387 173.607 292.139 176.069 289.913 178.567C289.903 178.107 289.892 177.647 289.881 177.173C289.866 176.51 289.913 175.846 289.912 175.197C289.961 173.91 290.111 172.628 290.36 171.363C290.596 170.115 291 168.903 291.561 167.763C292.134 166.591 292.918 165.534 293.875 164.646C292.572 165.162 291.459 166.067 290.69 167.239C289.901 168.405 289.354 169.718 289.084 171.1C288.822 172.459 288.76 173.85 288.901 175.228C288.987 175.924 289.107 176.584 289.248 177.25C289.392 177.749 289.543 178.241 289.715 178.733C289.218 179.288 288.715 179.837 288.225 180.4C285.424 183.52 282.841 186.83 280.494 190.306L280.016 191.07C279.849 190.488 279.682 189.899 279.508 189.317L278.927 186.846C278.572 185.208 278.34 183.546 278.233 181.873C278.161 180.77 278.165 179.662 278.247 178.559C278.255 178.928 278.313 179.304 278.356 179.673C278.52 180.959 278.783 182.232 279.142 183.478C279.511 184.735 279.961 185.967 280.491 187.166L280.064 185.292C279.951 184.659 279.804 184.042 279.72 183.416C279.521 182.166 279.387 180.907 279.319 179.643C279.254 178.394 279.274 177.142 279.378 175.895C279.477 174.678 279.706 173.475 280.063 172.307L280.811 169.994C283.963 167.672 287.42 165.798 291.086 164.425ZM277.881 172.406C278.332 171.984 278.797 171.576 279.248 171.174L278.931 171.67C277.996 173.22 277.401 174.951 277.186 176.748C276.952 178.484 276.942 180.243 277.154 181.982C277.368 183.699 277.739 185.393 278.262 187.043C278.532 187.86 278.858 188.655 279.155 189.457C279.42 190.044 279.692 190.617 279.963 191.197C279.032 192.697 278.214 194.264 277.518 195.887C277.34 196.317 277.175 196.753 277.025 197.189C276.494 196.465 276.037 195.691 275.66 194.876C275.292 193.98 275.007 193.053 274.807 192.105C274.465 190.112 274.264 188.098 274.207 186.076C273.756 187.045 273.48 188.087 273.392 189.152C273.281 190.224 273.327 191.306 273.529 192.365C273.752 193.441 274.176 194.466 274.778 195.385C275.334 196.211 276.086 196.886 276.966 197.351C276.789 197.857 276.634 198.37 276.485 198.883C276.265 199.66 276.118 200.455 276.045 201.259C275.02 200.525 273.931 199.885 272.791 199.346C272.429 198.503 272.094 197.596 271.795 196.71C271.416 195.497 271.113 194.262 270.886 193.012C270.418 190.519 270.328 187.968 270.62 185.448C270.92 182.934 271.736 180.509 273.015 178.324C274.359 176.142 275.996 174.156 277.881 172.42L277.881 172.406ZM268.79 164.335C270.915 167.748 272.339 171.55 272.978 175.52L273.055 175.518C272.56 176.158 272.087 176.811 271.65 177.505C270.218 179.854 269.275 182.467 268.876 185.188C268.458 187.891 268.451 190.641 268.856 193.345C269.103 195.013 269.47 196.66 269.954 198.274C269.666 198.19 269.371 198.106 269.076 198.043C268.052 197.799 267.002 197.676 265.949 197.676C264.962 196.562 264.16 195.296 263.574 193.928C262.822 192.081 262.371 190.124 262.239 188.133C262.09 186.129 262.088 184.116 262.232 182.112C262.339 180.1 262.536 178.072 262.712 176.044C263.009 171.997 263.359 167.803 262.427 163.715C261.717 160.139 260.002 156.841 257.482 154.207C258.425 154.744 259.348 155.315 260.25 155.922C263.637 158.126 266.542 160.992 268.791 164.349L268.79 164.335ZM249.32 150.363C251.966 151.37 254.54 152.557 257.022 153.918C258.119 155.198 259.022 156.632 259.703 158.175C260.528 159.999 261.112 161.923 261.44 163.898C261.766 165.871 261.888 167.872 261.802 169.869C261.744 171.88 261.602 173.893 261.412 175.921C261.115 179.968 260.673 184.095 261.229 188.226C261.461 190.302 262.061 192.32 263 194.186C263.704 195.472 264.602 196.643 265.662 197.655C264.526 197.669 263.394 197.81 262.288 198.075C259.714 197.702 257.176 197.107 254.704 196.297C253.228 195.822 251.771 195.27 250.334 194.682C249.363 193.049 248.655 191.274 248.237 189.421C247.671 187.203 247.241 184.953 246.951 182.682C246.308 178.127 245.97 173.509 245.459 168.901C245.168 166.599 244.871 164.289 244.392 161.998C243.902 159.697 243.094 157.475 241.992 155.397C240.895 153.334 239.572 151.399 238.049 149.627C236.857 148.208 235.557 146.882 234.161 145.663C235.305 145.937 236.449 146.224 237.586 146.54C241.561 147.617 245.477 148.898 249.321 150.377L249.32 150.363ZM200.886 142.995C204.997 142.76 209.12 142.713 213.227 142.883C216.635 143.023 220.03 143.307 223.413 143.735C224.596 145.103 225.66 146.474 226.691 147.909C227.297 148.753 227.903 149.604 228.495 150.469C229.087 151.335 229.673 152.221 230.363 153.085C230.169 152.01 229.837 150.965 229.377 149.975C228.934 148.977 228.388 148.028 227.748 147.145C227.103 146.256 226.364 145.44 225.543 144.712C225.196 144.409 224.831 144.128 224.449 143.872C227.654 144.305 230.831 144.891 233.979 145.632C237.006 148.546 239.511 151.957 241.385 155.718C242.395 157.764 243.114 159.941 243.524 162.185C243.932 164.436 244.167 166.733 244.38 169.031C244.822 173.619 245.131 178.245 245.734 182.864C246.009 185.187 246.426 187.491 246.982 189.764C247.32 191.194 247.804 192.585 248.425 193.917C246.775 193.188 245.152 192.399 243.556 191.553C237.343 188.188 231.405 184.338 225.796 180.04C225.884 177.225 225.8 174.407 225.545 171.603C225.276 168.515 224.811 165.447 224.153 162.418C223.537 159.368 222.566 156.4 221.262 153.575C220.595 152.166 219.761 150.843 218.777 149.634C217.834 148.393 216.598 147.405 215.18 146.759C216.501 147.529 217.628 148.591 218.475 149.864C219.351 151.11 220.085 152.451 220.661 153.861C221.818 156.678 222.64 159.621 223.111 162.63C223.67 165.622 224.071 168.64 224.312 171.673C224.494 174.118 224.593 176.586 224.559 179.029L223.28 178.026C218.63 174.317 214.164 170.374 209.848 166.266C209.565 165.144 209.38 164 209.294 162.846C209.146 160.993 209.096 159.125 208.99 157.271C208.946 156.3 208.835 155.332 208.658 154.376C208.425 153.416 208.077 152.487 207.624 151.609C206.76 149.896 205.647 148.32 204.32 146.934C205.21 148.58 206.004 150.277 206.698 152.014C207.032 152.857 207.286 153.73 207.456 154.62C207.589 155.522 207.671 156.431 207.701 157.343C207.784 159.242 207.984 161.134 208.3 163.009C208.454 163.831 208.671 164.64 208.949 165.429C207.657 164.189 206.379 162.942 205.115 161.673C199.579 156.143 194.255 150.391 189.238 144.374L189.236 144.276C193.093 143.639 196.982 143.211 200.886 142.995ZM193.097 168.169C191.717 164.242 190.69 160.2 190.026 156.092C189.404 152.308 189.13 148.474 189.209 144.64C193.823 150.443 198.725 156.016 203.818 161.403C202.039 160.537 200.325 159.74 198.57 158.943C196.689 158.073 194.748 157.339 192.762 156.747C193.53 157.468 194.371 158.108 195.27 158.657C196.158 159.212 197.083 159.706 198.039 160.135C198.999 160.562 199.992 160.913 201.008 161.182C201.972 161.448 202.968 161.575 203.968 161.56C204.168 161.772 204.362 161.991 204.562 162.195C210.224 168.124 216.218 173.727 222.513 178.979L224.177 180.336C223.267 180.468 222.356 180.608 221.436 180.685C220.241 180.799 219.04 180.85 217.84 180.838C215.434 180.844 213.035 180.574 210.69 180.034C208.336 179.5 206.062 178.659 203.927 177.533C201.779 176.382 199.766 174.994 197.928 173.394C199.621 175.172 201.533 176.729 203.617 178.028C205.744 179.309 208.04 180.285 210.439 180.926C212.833 181.6 215.303 181.962 217.79 182.005C219.032 182.042 220.275 182.013 221.514 181.918C222.754 181.827 223.977 181.61 225.208 181.463L225.521 181.421C230.897 185.797 236.699 189.623 242.839 192.839C245.006 193.891 247.218 194.831 249.471 195.707C248.891 196.017 248.288 196.285 247.669 196.509C246.825 196.829 245.959 197.1 245.078 197.337C243.309 197.81 241.515 198.182 239.704 198.452C237.889 198.745 236.059 198.934 234.221 199.109C232.397 199.303 230.563 199.392 228.729 199.376C225.055 199.303 221.411 198.703 217.907 197.597C214.767 196.62 211.768 195.238 208.985 193.484C207.728 192.244 206.513 190.96 205.358 189.612C199.962 183.297 195.802 176.022 193.097 168.169ZM224.654 205.115C219.067 202.067 213.917 198.279 209.343 193.853C211.947 195.646 214.771 197.095 217.746 198.166C221.276 199.432 224.976 200.163 228.723 200.332C232.453 200.423 236.183 200.183 239.87 199.613C241.727 199.356 243.569 198.994 245.385 198.53C246.301 198.292 247.202 198.02 248.101 197.692C249.038 197.371 249.932 196.938 250.764 196.402L250.95 196.279C252.075 196.672 253.214 197.029 254.366 197.338C256.468 197.904 258.612 198.305 260.778 198.536C260.48 198.64 260.182 198.738 259.892 198.856C257.118 200.058 254.675 201.909 252.768 204.254C250.915 206.528 249.349 209.02 248.104 211.675C247.765 212.381 247.438 213.051 247.126 213.742C239.305 211.829 231.762 208.92 224.681 205.087L224.654 205.115ZM278.207 227.723C276.904 230.284 275.115 232.567 272.942 234.446C270.808 236.431 268.424 238.128 265.851 239.495C263.259 240.816 260.504 241.788 257.657 242.385C252.213 243.558 246.52 243.585 240.889 244.169C241.53 238.845 242.558 233.574 243.963 228.398C244.682 225.674 245.548 222.996 246.519 220.364C247.475 217.733 248.605 215.168 249.9 212.687C251.113 210.216 252.635 207.908 254.43 205.821C256.155 203.796 258.349 202.222 260.819 201.235C263.239 200.304 265.887 200.146 268.4 200.78C270.578 201.362 272.615 202.381 274.387 203.774C273.834 204.806 273.297 205.839 272.777 206.875C272.494 207.044 272.196 207.187 271.887 207.3C271.498 207.449 271.1 207.573 270.695 207.67C269.863 207.868 269.017 208.006 268.165 208.084C266.421 208.229 264.67 208.27 262.921 208.206C261.12 208.172 259.32 208.329 257.552 208.672C255.781 208.998 254.085 209.65 252.552 210.595C254.17 209.891 255.892 209.457 257.65 209.312C259.388 209.129 261.139 209.1 262.882 209.225C264.675 209.389 266.479 209.42 268.277 209.316C269.192 209.247 270.101 209.111 270.996 208.912C271.287 208.842 271.586 208.758 271.876 208.661C271.103 210.235 270.337 211.795 269.557 213.341C267.536 213.771 265.538 214.264 263.548 214.806C261.265 215.426 259.016 216.146 256.802 216.965C255.696 217.388 254.597 217.853 253.528 218.38C252.456 218.919 251.44 219.562 250.495 220.3C249.551 221.02 248.668 221.817 247.857 222.684C247.017 223.523 246.348 224.517 245.887 225.612C246.475 224.604 247.231 223.704 248.121 222.95C248.98 222.18 249.897 221.478 250.864 220.849C252.809 219.603 254.919 218.636 257.133 217.976C259.334 217.227 261.588 216.623 263.842 216.027C265.478 215.598 267.123 215.204 268.775 214.824C266.912 218.646 264.809 222.347 262.48 225.904C261.827 226.849 261.151 227.795 260.452 228.742C259.352 228.088 258.132 227.661 256.865 227.485C255.334 227.319 253.785 227.449 252.303 227.87C251.936 227.976 251.569 228.082 251.215 228.202L250.172 228.645C249.491 228.955 248.83 229.308 248.194 229.703C247.569 230.108 246.972 230.554 246.375 230.987C245.778 231.419 245.267 231.969 244.735 232.469C245.375 232.099 246.002 231.742 246.613 231.344L248.544 230.344C249.829 229.736 251.178 229.274 252.566 228.966C253.925 228.668 255.324 228.598 256.706 228.759C257.779 228.899 258.822 229.217 259.791 229.699C258.101 231.968 256.191 234.064 254.089 235.957C252.947 236.996 251.742 237.987 250.501 238.915C250.174 238.634 249.794 238.42 249.384 238.285C248.855 238.116 248.301 238.041 247.746 238.065C247.2 238.091 246.661 238.202 246.149 238.395C245.633 238.579 245.163 238.873 244.773 239.257C245.784 239.395 246.807 239.43 247.825 239.361L250.069 239.253C247.895 240.846 245.569 242.221 243.124 243.357L243.206 243.564C247.407 241.919 251.331 239.64 254.841 236.805C255.608 236.194 256.34 235.542 257.057 234.877C256.781 235.536 256.564 236.218 256.406 236.915C256.311 237.322 256.223 237.729 256.149 238.156C256.052 238.619 255.979 239.087 255.93 239.557C256.4 239.354 256.8 239.017 257.08 238.588C257.36 238.18 257.562 237.724 257.677 237.242C257.784 236.77 257.815 236.284 257.769 235.802C257.731 235.376 257.61 234.962 257.413 234.583C258.232 233.803 259.016 232.989 259.778 232.148C260.138 231.749 260.492 231.343 260.838 230.938C261.031 231.404 261.194 231.883 261.325 232.371C261.565 233.235 261.727 234.118 261.812 235.011C261.902 235.917 261.924 236.828 261.875 237.738C261.822 238.659 261.717 239.577 261.562 240.487C261.921 239.62 262.2 238.721 262.393 237.802C262.588 236.87 262.692 235.922 262.704 234.969C262.706 234.008 262.612 233.05 262.421 232.108C262.266 231.348 262.034 230.605 261.728 229.891C262.528 228.91 263.308 227.915 264.08 226.906C266.08 224.308 267.882 221.563 269.471 218.694C269.477 218.925 269.482 219.155 269.488 219.392C269.512 220.365 269.607 221.335 269.771 222.295C269.932 223.219 270.072 224.151 270.185 225.076C270.429 226.924 270.519 228.789 270.453 230.652C270.418 232.534 269.958 234.384 269.107 236.063C270.17 234.458 270.827 232.618 271.02 230.702C271.252 228.795 271.289 226.87 271.131 224.957C271.06 224.002 270.954 223.049 270.841 222.103C270.713 221.179 270.652 220.248 270.658 219.316C270.678 218.099 270.778 216.884 270.958 215.681L271.144 215.279C272.084 213.098 272.917 210.89 273.642 208.655C274.338 209.682 274.962 210.756 275.509 211.87C275.879 212.603 276.18 213.369 276.407 214.159C276.6 214.967 276.745 215.786 276.84 216.612C277.047 218.289 277.184 219.995 277.23 221.696C277.25 222.554 277.27 223.405 277.227 224.257C277.217 225.109 277.086 225.956 276.839 226.771C277.222 225.992 277.469 225.153 277.57 224.291C277.703 223.437 277.795 222.576 277.859 221.71C277.962 219.978 277.956 218.242 277.843 216.512C277.8 215.628 277.686 214.748 277.503 213.882C277.289 213.012 276.994 212.163 276.621 211.349C275.924 209.855 275.087 208.43 274.122 207.095C274.427 206.097 274.71 205.085 274.973 204.068L275.349 204.373C277.378 206.183 278.865 208.52 279.644 211.125C280.473 213.827 280.776 216.662 280.535 219.478C280.311 222.335 279.54 225.122 278.262 227.687L278.207 227.723ZM356.182 229.9C352.105 232.431 347.798 234.57 343.318 236.289C338.891 238.06 334.323 239.452 329.661 240.45C325.022 241.467 320.271 241.882 315.526 241.685C310.844 241.494 306.262 240.271 302.109 238.103C297.905 235.936 294.055 233.143 290.69 229.82C289.002 228.157 287.461 226.351 286.085 224.422C284.767 222.635 283.627 220.724 282.68 218.716C282.922 215.935 282.675 213.133 281.951 210.437C281.806 209.889 281.626 209.342 281.432 208.802L282.021 208.649C285.33 210.524 288.81 212.079 292.414 213.292C296.009 214.541 299.677 215.568 303.398 216.366C307.123 217.154 310.886 217.746 314.673 218.142C315.624 218.252 316.582 218.349 317.54 218.438C318.587 219.921 319.653 221.39 320.816 222.786C322.102 224.368 323.476 225.871 324.892 227.339C326.324 228.796 327.85 230.159 329.459 231.419C331.034 232.751 332.842 233.78 334.79 234.456C333.112 233.344 331.547 232.069 330.118 230.65C328.691 229.288 327.227 227.857 325.833 226.41L321.562 222.155C320.326 220.921 319.104 219.665 317.786 218.502C320.534 218.746 323.287 218.912 326.045 219.009L328.406 219.094C329.066 220.067 329.823 220.97 330.666 221.79C331.684 222.79 332.804 223.681 334.007 224.448C335.228 225.209 336.541 225.812 337.914 226.241C339.29 226.662 340.735 226.809 342.167 226.673C340.836 226.306 339.534 225.844 338.269 225.291C337.042 224.716 335.85 224.068 334.7 223.35C332.67 222.037 330.709 220.62 328.825 219.105C333.58 219.246 338.352 219.219 343.103 218.927C343.654 220.081 344.342 221.164 345.153 222.152C345.962 223.171 346.872 224.107 347.869 224.943C348.875 225.791 349.99 226.502 351.183 227.057C352.376 227.623 353.685 227.899 355.005 227.862C353.837 227.41 352.719 226.843 351.665 226.167C350.634 225.487 349.645 224.746 348.704 223.947C347.737 223.167 346.824 222.309 345.897 221.465L343.118 218.941C345.027 218.82 346.935 218.664 348.842 218.452C352.632 218.034 356.397 217.421 360.124 216.614C363.855 215.82 367.5 214.663 371.005 213.159L370.953 213.021L368.23 213.823C367.322 214.082 366.391 214.271 365.454 214.502C364.518 214.733 363.608 214.9 362.677 215.089C361.746 215.278 360.823 215.46 359.898 215.593C356.18 216.238 352.429 216.66 348.668 216.977C345.646 217.229 342.627 217.429 339.611 217.578L339.646 217.577C340.164 217.17 340.65 216.725 341.102 216.245C342.008 215.303 342.864 214.328 343.722 213.394C345.436 211.491 347.178 209.567 349.036 207.863C350.905 206.179 353.047 204.825 355.369 203.858C357.732 202.859 360.202 202.134 362.729 201.698C360.104 201.623 357.487 202.024 355.005 202.882C353.754 203.321 352.543 203.867 351.387 204.515C350.231 205.187 349.148 205.976 348.155 206.872C346.262 208.676 344.517 210.63 342.938 212.714C342.139 213.737 341.396 214.801 340.617 215.824C340.153 216.47 339.63 217.07 339.054 217.619C334.733 217.83 330.402 217.931 326.067 217.85C322.291 217.77 318.512 217.592 314.75 217.24C310.993 216.913 307.255 216.397 303.55 215.693C299.832 214.999 296.162 214.075 292.559 212.926C288.97 211.818 285.493 210.376 282.174 208.617C283.954 208.14 285.694 207.526 287.379 206.78C289.797 205.701 292.061 204.307 294.113 202.633C296.16 200.962 297.963 199.013 299.471 196.843C300.933 194.694 302.193 192.413 303.234 190.03C304.219 187.783 305.024 185.462 305.641 183.087C308.752 182.209 311.922 181.553 315.126 181.123C318.315 180.723 321.539 180.7 324.733 181.054C326.325 181.237 327.905 181.52 329.462 181.9C331.027 182.289 332.581 182.777 334.128 183.306C337.209 184.372 340.245 185.627 343.221 186.995C349.186 189.752 354.911 192.999 360.339 196.702C365.63 200.271 370.459 204.481 374.717 209.235C370.889 217.76 364.131 224.831 356.238 229.87L356.182 229.9Z" fill="#C3670B"/>
</g>
<g style="mix-blend-mode:multiply">
<path d="M238.349 157.692C238.755 159.526 239.043 161.384 239.211 163.254L239.901 168.939C240.407 172.73 240.956 176.527 241.734 180.284C242.105 182.159 242.567 184.032 243.105 185.876C243.399 186.797 243.699 187.711 244.069 188.603C244.415 189.501 244.888 190.346 245.474 191.11C244.614 189.413 244.024 187.593 243.723 185.715C243.338 183.854 243.015 181.985 242.734 180.1C242.166 176.339 241.673 172.561 241.188 168.777L240.428 163.094C240.205 161.17 239.837 159.266 239.326 157.398C238.13 153.697 236.042 150.348 233.246 147.645C234.429 149.141 235.458 150.754 236.316 152.458C237.188 154.121 237.87 155.877 238.349 157.692Z" fill="#C3670B"/>
</g>
<g style="mix-blend-mode:multiply">
<path d="M260.432 220.957C260.791 220.782 261.13 220.568 261.442 220.32C261.079 220.111 260.674 219.988 260.257 219.958C259.839 219.927 259.42 219.992 259.031 220.145C258.653 220.28 258.301 220.48 257.991 220.734C257.656 221 257.399 221.35 257.247 221.749C258.003 221.76 258.755 221.631 259.464 221.37C259.795 221.253 260.118 221.115 260.432 220.957Z" fill="#C3670B"/>
</g>
<g style="mix-blend-mode:multiply">
<path d="M274.757 215.211C274.386 215.83 274.139 216.516 274.029 217.23C273.977 217.565 273.957 217.904 273.969 218.243C273.97 218.632 274.028 219.019 274.142 219.39C274.462 219.162 274.732 218.87 274.934 218.533C275.136 218.195 275.267 217.82 275.318 217.43C275.379 217.053 275.37 216.668 275.292 216.294C275.219 215.889 275.034 215.514 274.757 215.211Z" fill="#C3670B"/>
</g>
<g style="mix-blend-mode:multiply">
<path d="M312.859 195.256C317.344 192.747 322.057 190.671 326.936 189.055C329.379 188.265 331.876 187.649 334.408 187.214C336.934 186.737 339.515 186.619 342.075 186.862C339.512 186.363 336.887 186.269 334.295 186.582C331.703 186.896 329.137 187.403 326.62 188.099C324.11 188.817 321.644 189.683 319.236 190.692C316.832 191.712 314.483 192.856 312.198 194.12C309.915 195.387 307.704 196.78 305.575 198.293L302.432 200.571C301.375 201.293 300.332 202.057 299.252 202.738C297.112 204.167 294.881 205.457 292.573 206.597C290.303 207.815 287.893 208.749 285.395 209.38C287.974 209.003 290.488 208.271 292.867 207.205C295.257 206.16 297.577 204.96 299.81 203.611C302.061 202.31 304.194 200.718 306.304 199.316C308.416 197.848 310.604 196.493 312.859 195.256Z" fill="#C3670B"/>
</g>
<g style="mix-blend-mode:multiply">
<path d="M346.824 195.454C344.514 195.606 342.218 195.916 339.951 196.381C337.681 196.851 335.441 197.463 333.246 198.211C331.066 198.959 328.902 199.826 326.804 200.809C324.705 201.793 322.664 202.845 320.661 204.022C318.658 205.198 316.712 206.444 314.823 207.723C312.934 209.001 310.981 210.219 309.027 211.422C307.073 212.626 305.126 213.829 303.137 214.985C307.337 213.099 311.416 210.957 315.352 208.568C319.217 206.143 323.225 203.953 327.355 202.01C331.476 200.072 335.768 198.522 340.177 197.38C342.38 196.807 344.62 196.382 346.881 196.108C349.151 195.803 351.438 195.641 353.728 195.622C351.435 195.38 349.126 195.324 346.824 195.454Z" fill="#C3670B"/>
</g>
<g style="mix-blend-mode:multiply">
<path d="M320.306 237.421C316.173 236.771 312.268 235.099 308.945 232.556C305.56 230.088 302.922 226.765 300.195 223.493C298.831 221.85 297.508 220.185 296.186 218.513L292.184 213.52C293.293 215.343 294.493 217.108 295.678 218.888C296.864 220.668 298.139 222.382 299.406 224.104C300.674 225.826 302.005 227.533 303.41 229.147C304.839 230.786 306.431 232.275 308.16 233.593C309.899 234.912 311.8 236 313.817 236.832C315.842 237.642 317.966 238.175 320.133 238.416C322.286 238.636 324.455 238.639 326.609 238.427C328.74 238.196 330.851 237.807 332.924 237.261C330.817 237.56 328.694 237.737 326.566 237.793C324.472 237.874 322.375 237.75 320.306 237.421Z" fill="#C3670B"/>
</g>
</g>
<g opacity="0.85">
<path d="M319.936 69.3513C316.581 69.5595 313.253 70.0936 309.999 70.9461C308.366 71.3771 306.778 71.9645 305.256 72.7005C303.642 73.3996 302.214 74.4734 301.09 75.8344L284.868 98.609C283.426 100.458 282.106 102.4 280.915 104.422C279.786 106.549 279.153 108.909 279.066 111.32C279.009 113.701 279.294 116.078 279.911 118.377C280.511 120.662 281.285 122.896 282.228 125.06C283.94 129.47 286.386 133.553 289.461 137.133C291.053 138.907 292.903 140.426 294.947 141.638C297.018 142.854 299.307 143.643 301.683 143.959C304.076 144.284 306.511 144.046 308.797 143.265C309.982 142.873 311.078 142.25 312.023 141.431C312.516 140.971 312.907 140.411 313.169 139.788C313.381 139.211 313.552 138.619 313.683 138.018C313.908 136.982 314.417 136.032 315.153 135.275C315.335 135.067 315.509 134.924 315.746 134.693C315.979 134.478 316.198 134.249 316.402 134.007C316.813 133.515 317.17 132.98 317.47 132.412C318.048 131.302 318.44 130.103 318.632 128.863C318.711 128.353 318.758 127.851 318.79 127.348C318.885 127.428 318.987 127.508 319.082 127.596C321.699 129.796 324.276 132.045 326.711 134.414C327.936 135.602 329.082 136.806 330.165 138.106C331.282 139.515 332.552 140.794 333.952 141.917C335.388 143.098 337.095 143.896 338.917 144.238C339.643 144.368 340.389 144.344 341.106 144.166C341.233 144.166 341.351 144.118 341.47 144.078L341.826 143.927C342.297 143.731 342.734 143.462 343.122 143.129C343.486 142.797 343.802 142.416 344.063 141.997C344.195 141.793 344.316 141.583 344.427 141.367L344.687 140.705C344.85 140.265 344.974 139.812 345.059 139.35L345.312 138.114C345.423 137.715 345.525 137.316 345.644 136.918C346.169 135.332 346.94 133.841 347.929 132.5C349.952 129.812 352.624 127.635 355.273 125.442C355.97 124.874 356.56 124.182 357.012 123.401C357.244 123.01 357.43 122.592 357.565 122.157C357.685 121.715 357.754 121.26 357.771 120.801C357.771 118.983 357.139 117.222 355.984 115.825L347.462 110.02L345.47 108.657C347.987 106.516 349.774 103.632 350.577 100.411C351.352 97.0019 351.371 93.462 350.632 90.0446C350.3 88.3556 349.832 86.6968 349.233 85.0845C348.649 83.4511 347.886 81.8889 346.956 80.4276C344.941 77.6305 342.403 75.2576 339.486 73.4421C336.572 71.6524 333.356 70.4197 329.999 69.8058C326.68 69.2025 323.296 69.0496 319.936 69.3513ZM329.81 70.8664C333.021 71.4942 336.09 72.7163 338.861 74.4708C341.607 76.2298 343.989 78.5102 345.873 81.1851C347.536 83.9977 348.659 87.1004 349.186 90.3316C349.808 93.5239 349.727 96.8154 348.948 99.9726C348.14 103.004 346.341 105.67 343.842 107.54C342.181 106.416 340.521 105.307 338.83 104.231C336.197 102.596 333.565 101.041 331.075 99.3027C331.075 98.7392 331.231 98.1869 331.525 97.7079C331.978 97.0325 332.657 96.5453 333.438 96.3363C335.019 95.7621 336.6 96.416 338.102 97.1337C338.474 97.3251 338.853 97.5165 339.217 97.7318C339.399 97.8355 339.589 97.9391 339.818 98.0428C340.034 98.1539 340.262 98.2395 340.498 98.298C340.992 98.4486 341.517 98.4675 342.022 98.353C342.526 98.2384 342.992 97.9942 343.375 97.6441C343.75 97.2895 344.047 96.8591 344.246 96.3808C344.445 95.9026 344.541 95.3875 344.529 94.869C344.48 93.864 344.105 92.903 343.462 92.1338C342.298 90.7252 340.851 89.5811 339.217 88.7767C337.611 87.9367 335.867 87.3964 334.071 87.1818C333.616 87.1314 333.16 87.1048 332.703 87.102L331.335 87.1658L329.984 87.4051C329.537 87.5121 329.096 87.6425 328.663 87.7958C328.227 87.9354 327.803 88.1142 327.399 88.3301C326.977 88.5121 326.574 88.7366 326.197 88.9999C325.825 89.2551 325.446 89.5023 325.067 89.7974C324.655 90.1067 324.292 90.4778 323.991 90.8978C323.658 91.3688 323.448 91.9176 323.383 92.4927C323.34 93.0505 323.418 93.6112 323.612 94.1354C323.972 95.0474 324.509 95.8771 325.193 96.5755C326.433 97.859 327.812 98.9985 329.304 99.9726C332.197 101.934 335.264 103.521 338.229 105.22C344.118 108.657 349.913 112.349 355.62 116.184C356.662 117.464 357.222 119.074 357.202 120.73C357.13 121.545 356.886 122.336 356.487 123.048C356.087 123.761 355.541 124.379 354.885 124.86C352.229 127.005 349.399 129.063 347.186 131.838C346.074 133.233 345.189 134.797 344.561 136.471C344.411 136.894 344.284 137.324 344.15 137.747L343.834 139.039C343.746 139.423 343.627 139.799 343.478 140.163L343.249 140.697C343.162 140.865 343.043 141.008 342.948 141.168C342.857 141.328 342.742 141.473 342.608 141.598C342.482 141.726 342.363 141.87 342.229 141.989C341.956 142.205 341.652 142.377 341.328 142.5L341.083 142.603C340.996 142.603 340.909 142.603 340.822 142.651C340.65 142.69 340.476 142.717 340.3 142.731C339.916 142.778 339.528 142.773 339.146 142.715C337.601 142.364 336.167 141.633 334.972 140.586C333.705 139.525 332.552 138.333 331.533 137.029C330.45 135.642 329.233 134.342 328.007 133.146C325.549 130.69 322.98 128.361 320.371 126.112C315.137 121.615 309.746 117.341 304.228 113.218L303.706 112.835L303.185 113.154C302.724 113.442 302.302 113.788 301.928 114.183C301.577 114.557 301.257 114.96 300.971 115.387C300.438 116.253 300.048 117.201 299.817 118.194C299.442 120.131 299.554 122.132 300.141 124.015C300.26 124.478 300.442 124.916 300.592 125.363L300.837 126.033L301.129 126.671L301.722 127.946C301.936 128.361 302.181 128.744 302.41 129.159C303.268 130.863 304.438 132.389 305.857 133.656C306.638 134.331 307.596 134.763 308.616 134.9C309.159 134.961 309.708 134.886 310.216 134.682C310.723 134.477 311.173 134.15 311.525 133.728C311.62 133.621 311.702 133.503 311.77 133.377C311.853 133.249 311.917 133.109 311.96 132.962C311.997 132.874 312.019 132.779 312.023 132.683C312.05 132.565 312.05 132.442 312.023 132.324C311.997 132.232 311.959 132.144 311.912 132.061C311.882 131.989 311.843 131.922 311.794 131.862C311.491 131.464 311.155 131.093 310.79 130.753C310.145 130.157 309.557 129.5 309.035 128.792C308.504 128.115 308.132 127.326 307.944 126.484C307.757 125.642 307.759 124.768 307.952 123.927C308.321 122.526 308.966 121.213 309.849 120.068C310.284 120.411 310.718 120.754 311.145 121.104C313.201 122.739 315.232 124.414 317.256 126.096C317.411 128.043 317.053 129.996 316.22 131.758C315.978 132.232 315.687 132.678 315.351 133.09C315.184 133.295 315.005 133.49 314.813 133.672C314.639 133.855 314.371 134.095 314.173 134.318C313.562 134.971 313.086 135.741 312.774 136.583C310.783 138.312 308.282 139.33 305.659 139.477C303.05 139.475 300.482 138.817 298.189 137.563C295.827 136.368 293.594 134.93 291.524 133.273C290.47 132.46 289.451 131.601 288.465 130.698C287.453 129.812 286.489 128.879 285.548 127.922C287.177 130.089 289.032 132.073 291.082 133.839C293.089 135.649 295.321 137.188 297.722 138.417C300.144 139.737 302.878 140.36 305.627 140.219C307.008 140.104 308.353 139.711 309.58 139.063C310.765 138.424 311.834 137.588 312.742 136.591C312.601 136.948 312.488 137.316 312.402 137.691C312.306 138.744 311.87 139.735 311.161 140.514C310.346 141.216 309.408 141.757 308.394 142.109C306.289 142.871 304.036 143.12 301.817 142.834C297.335 142.316 293.248 139.796 290.18 136.455C287.141 132.987 284.718 129.016 283.018 124.717C282.097 122.594 281.341 120.403 280.757 118.162C280.173 115.942 279.907 113.648 279.967 111.352C280.037 109.069 280.624 106.832 281.682 104.813C282.858 102.822 284.16 100.91 285.58 99.0874L301.793 76.3447C302.273 75.7257 302.846 75.1873 303.493 74.7499C304.165 74.2946 304.871 73.892 305.604 73.5457C307.086 72.843 308.632 72.2849 310.22 71.8791C313.421 71.0501 316.693 70.5347 319.991 70.3401C323.273 70.0527 326.578 70.2325 329.81 70.8743L329.81 70.8664ZM326.774 95.8259C327.746 95.6744 328.711 95.483 329.659 95.2598C330.853 94.9966 332.031 94.6298 333.177 94.4145C334.319 94.1463 335.492 94.031 336.664 94.0716C337.848 94.117 338.983 94.5668 339.881 95.3475C339.535 94.812 339.078 94.3587 338.542 94.0186C338.006 93.6786 337.403 93.4599 336.774 93.3778C335.519 93.1724 334.237 93.2076 332.996 93.4815C331.791 93.7558 330.608 94.1155 329.454 94.558C328.505 94.9009 327.565 95.2757 326.64 95.6904C326.576 95.6186 326.497 95.5548 326.434 95.483C325.913 94.9428 325.5 94.3066 325.217 93.6091C325.113 93.3234 325.068 93.0197 325.082 92.716C325.126 92.4292 325.234 92.1563 325.399 91.9185C325.598 91.6369 325.838 91.3869 326.11 91.1769L327.09 90.4831C327.418 90.2503 327.768 90.05 328.134 89.8851C328.477 89.687 328.84 89.5266 329.217 89.4066C329.59 89.2651 329.97 89.1427 330.355 89.0398L331.525 88.8165L332.727 88.7448C332.761 88.7408 332.795 88.7408 332.83 88.7448C332.647 89.6025 332.788 90.4982 333.225 91.2567C333.549 91.7802 334.023 92.1919 334.584 92.4369C334.853 92.5609 335.134 92.6571 335.422 92.7239L336.213 92.8994L339.312 93.4895C339.814 93.5842 340.306 93.7257 340.782 93.9121C341.262 94.0816 341.664 94.4218 341.913 94.869C341.866 94.5877 341.759 94.3197 341.601 94.0832C341.443 93.8466 341.237 93.6469 340.996 93.4974C340.531 93.1872 340.029 92.9379 339.502 92.7558C338.466 92.4203 337.41 92.1539 336.339 91.9584L335.549 91.8069C335.32 91.7572 335.096 91.6906 334.877 91.6075C334.439 91.451 334.053 91.1749 333.762 90.8101C333.319 90.2079 333.063 89.4862 333.027 88.7368C333.312 88.7368 333.588 88.7368 333.865 88.7368C335.501 88.8921 337.096 89.3489 338.569 90.0844C340.034 90.7756 341.353 91.7479 342.45 92.9472C342.947 93.4816 343.258 94.1646 343.336 94.8929C343.357 95.2438 343.306 95.5953 343.185 95.9249C343.063 96.2545 342.875 96.5549 342.632 96.8068C342.397 97.0503 342.098 97.2217 341.77 97.3012C341.431 97.3929 341.074 97.3929 340.735 97.3012C339.963 97.0103 339.208 96.6749 338.474 96.2964C337.663 95.9357 336.814 95.6682 335.944 95.499C335.039 95.3256 334.104 95.4169 333.248 95.7621C332.377 96.0618 331.642 96.6675 331.177 97.4686C330.921 97.9739 330.796 98.5363 330.814 99.1034L330.197 98.6807C328.978 97.8309 327.833 96.8785 326.774 95.8339L326.774 95.8259ZM310.963 132.508C310.945 132.581 310.91 132.65 310.861 132.707C310.82 132.78 310.77 132.848 310.711 132.906C310.467 133.17 310.163 133.369 309.825 133.486C309.487 133.603 309.126 133.634 308.774 133.576C308.014 133.452 307.305 133.108 306.734 132.587C305.913 131.815 305.205 130.929 304.631 129.956C304.535 129.537 304.482 129.11 304.473 128.68C304.467 127.999 304.565 127.321 304.766 126.671C304.979 126.049 305.303 125.371 305.556 124.677C306.01 123.297 306.255 121.856 306.284 120.403C306.318 119.246 306.211 118.089 305.967 116.958C307.206 117.931 308.444 118.909 309.683 119.892C308.678 121.017 307.921 122.343 307.461 123.784C307.186 124.704 307.126 125.676 307.288 126.623C307.45 127.571 307.799 128.477 308.315 129.286C308.838 130.06 309.431 130.783 310.086 131.447C310.376 131.746 310.64 132.069 310.877 132.412C310.899 132.441 310.918 132.473 310.932 132.508L310.963 132.508ZM305.786 116.854C305.825 117.325 305.849 117.795 305.849 118.266C305.864 118.974 305.835 119.682 305.762 120.387C305.636 121.784 305.353 123.162 304.916 124.494C304.718 125.171 304.426 125.777 304.189 126.511C303.989 127.232 303.922 127.983 303.991 128.728L303.991 128.903L303.73 128.361C303.525 127.97 303.303 127.564 303.106 127.189L302.584 125.969L302.323 125.363L302.117 124.741C301.999 124.334 301.833 123.943 301.738 123.505C301.274 121.888 301.217 120.181 301.572 118.537C301.776 117.778 302.099 117.056 302.529 116.4C302.757 116.082 303.008 115.78 303.28 115.499C303.392 115.383 303.511 115.274 303.635 115.172L305.786 116.854Z" fill="#C3670B"/>
<path d="M312.781 105.811C314.507 106.096 316.174 106.667 317.714 107.502C319.271 108.285 320.757 109.203 322.157 110.245C323.572 111.29 324.868 112.398 326.268 113.538C327.68 114.661 329.228 115.597 330.876 116.322C332.53 116.96 334.24 117.441 335.983 117.757C337.667 118.102 339.289 118.698 340.798 119.527C342.301 120.407 343.736 121.401 345.09 122.502C345.782 123.041 346.437 123.627 347.051 124.256C347.34 124.573 347.604 124.911 347.841 125.269C348.11 125.614 348.28 126.028 348.331 126.465C348.352 126.012 348.242 125.564 348.015 125.173C347.783 124.782 347.519 124.411 347.225 124.065C346.659 123.374 346.046 122.724 345.391 122.119C344.069 120.924 342.655 119.839 341.161 118.873C339.625 117.929 337.945 117.245 336.189 116.848C334.488 116.525 332.821 116.045 331.208 115.412C329.631 114.73 328.143 113.851 326.782 112.797C325.414 111.752 324.023 110.572 322.536 109.607C321.063 108.611 319.501 107.755 317.872 107.047C316.264 106.327 314.539 105.908 312.781 105.811Z" fill="#C3670B"/>
<path d="M323.841 99.0414C324.854 100.206 325.787 101.439 326.632 102.734C327.53 104.089 328.682 105.253 330.023 106.162C331.351 107.085 332.932 107.567 334.545 107.542C333.048 107.203 331.647 106.524 330.45 105.556C329.274 104.6 328.251 103.468 327.414 102.199C326.537 100.865 325.516 99.6319 324.371 98.5231C323.254 97.3868 321.905 96.5104 320.418 95.9554C321.697 96.8165 322.85 97.8555 323.841 99.0414Z" fill="#C3670B"/>
<path d="M331.343 121.669C330.553 120.944 329.825 120.122 329.051 119.373C328.276 118.623 327.47 117.866 326.679 117.164C325.855 116.443 324.989 115.772 324.086 115.154C323.625 114.856 323.144 114.59 322.647 114.357C322.163 114.093 321.617 113.961 321.066 113.974C321.592 114.062 322.091 114.266 322.529 114.572C322.976 114.869 323.403 115.194 323.81 115.545C324.6 116.231 325.391 116.973 326.181 117.722C327.723 119.229 329.177 120.792 330.711 122.363C331.502 123.142 332.362 123.847 333.28 124.468C334.2 125.082 335.171 125.616 336.181 126.063C338.177 126.961 340.323 127.469 342.506 127.562C340.413 127.11 338.39 126.378 336.49 125.386C334.594 124.422 332.858 123.169 331.343 121.669Z" fill="#C3670B"/>
<path d="M289.541 129.455C290.165 130.061 290.79 130.683 291.47 131.257C292.151 131.835 292.87 132.368 293.62 132.852C295.106 133.806 296.698 134.579 298.363 135.156C296.869 134.247 295.446 133.266 294.071 132.238C292.707 131.196 291.425 130.05 290.237 128.809C289.019 127.589 287.865 126.329 286.734 125.005C286.207 124.346 285.68 123.668 285.153 122.972C284.613 122.269 284.137 121.519 283.73 120.731C284.237 122.426 285.04 124.017 286.102 125.428C287.135 126.864 288.286 128.211 289.541 129.455Z" fill="#C3670B"/>
<path d="M319.967 72.9174C319.129 73.1567 318.259 73.3241 317.398 73.5075C315.666 73.8425 313.911 74.1534 312.148 74.4724C313.941 74.5309 315.735 74.4536 317.516 74.2412C318.409 74.1432 319.296 73.9941 320.172 73.7946C321.089 73.5873 321.88 73.2922 322.734 73.1886C324.44 72.9349 326.177 72.9889 327.864 73.348C328.72 73.5189 329.561 73.7589 330.378 74.0657C331.217 74.3541 332.015 74.7536 332.75 75.2539C331.444 73.9835 329.835 73.0767 328.078 72.6224C326.308 72.1004 324.447 71.9699 322.623 72.2396C321.726 72.4172 320.839 72.6434 319.967 72.9174Z" fill="#C3670B"/>
</g>
</g>
<defs>
<clipPath id="clip0_10404_43172">
<rect width="343" height="221" fill="white"/>
</clipPath>
</defs>
</svg>
