<svg width="26" height="21" viewBox="0 0 26 21" fill="none" xmlns="http://www.w3.org/2000/svg">
<path d="M9.64865 20.2227C9.61122 20.2227 9.57384 20.2199 9.53681 20.2145C8.59225 20.0802 7.67191 19.8098 6.80418 19.4116C6.61417 19.3239 6.46654 19.1641 6.39367 18.9672C6.3208 18.7704 6.32864 18.5525 6.41548 18.3614C6.50232 18.1704 6.66106 18.0217 6.85687 17.9481C7.05269 17.8744 7.26958 17.8818 7.45997 17.9687C8.18991 18.3036 8.9641 18.5311 9.75865 18.6441C9.95664 18.672 10.1367 18.7743 10.2626 18.9303C10.3884 19.0864 10.4507 19.2846 10.4367 19.4849C10.4227 19.6853 10.3336 19.8729 10.1874 20.0098C10.0411 20.1467 9.84857 20.2228 9.64865 20.2227ZM12.2679 20.2211C12.0682 20.2209 11.876 20.1448 11.73 20.008C11.584 19.8712 11.495 19.6838 11.4809 19.4838C11.4669 19.2837 11.5288 19.0857 11.6543 18.9296C11.7797 18.7736 11.9594 18.6711 12.1571 18.6428C12.9514 18.5288 13.7252 18.3005 14.4547 17.9649C14.6451 17.8773 14.8623 17.8692 15.0586 17.9425C15.2549 18.0157 15.4142 18.1643 15.5014 18.3556C15.5887 18.5468 15.5967 18.765 15.5238 18.9622C15.4509 19.1594 15.303 19.3194 15.1126 19.4071C14.2453 19.8061 13.3253 20.0775 12.381 20.2129C12.3439 20.2183 12.3064 20.2211 12.2689 20.2211H12.2679ZM4.92681 18.0596C4.7371 18.0598 4.55373 17.991 4.41049 17.8661C3.68978 17.2394 3.06155 16.5129 2.5447 15.7083C2.48849 15.6208 2.45 15.523 2.43141 15.4205C2.41281 15.3181 2.4145 15.2129 2.43635 15.1111C2.45821 15.0093 2.49982 14.9128 2.5588 14.8271C2.61778 14.7415 2.69298 14.6683 2.7801 14.6118C2.86722 14.5554 2.96456 14.5167 3.06656 14.498C3.16856 14.4793 3.27322 14.481 3.37457 14.503C3.47592 14.5249 3.57198 14.5667 3.65725 14.626C3.74252 14.6852 3.81534 14.7608 3.87155 14.8483C4.3071 15.5262 4.83644 16.1383 5.44365 16.6664C5.56555 16.7722 5.65231 16.9129 5.69228 17.0697C5.73225 17.2265 5.72352 17.3918 5.66726 17.5435C5.61101 17.6951 5.50991 17.8258 5.37755 17.9181C5.24519 18.0104 5.08791 18.0597 4.92681 18.0596ZM16.9873 18.053C16.8265 18.053 16.6694 18.0036 16.5373 17.9115C16.4051 17.8193 16.3041 17.6888 16.2478 17.5374C16.1915 17.3861 16.1826 17.221 16.2223 17.0644C16.2619 16.9078 16.3482 16.7671 16.4697 16.6611C17.0764 16.1322 17.6052 15.5192 18.04 14.8406C18.1533 14.6637 18.3319 14.5393 18.5365 14.4947C18.7412 14.4501 18.9551 14.489 19.1311 14.6028C19.3072 14.7167 19.4311 14.8961 19.4755 15.1017C19.5199 15.3073 19.4812 15.5221 19.3679 15.699C18.852 16.5043 18.2245 17.2315 17.5044 17.8589C17.361 17.9844 17.1772 18.0533 16.9871 18.053H16.9873ZM2.11549 13.679C1.94501 13.6789 1.77913 13.6234 1.64266 13.5208C1.50619 13.4181 1.40646 13.2739 1.35839 13.1096C1.09 12.1908 0.953532 11.2383 0.953125 10.2808C0.953125 10.0705 1.0363 9.86874 1.18436 9.72001C1.33241 9.57127 1.53322 9.48771 1.7426 9.48771C1.95198 9.48771 2.15279 9.57127 2.30084 9.72001C2.4489 9.86874 2.53207 10.0705 2.53207 10.2808C2.53268 11.0875 2.64788 11.8899 2.87418 12.6638C2.90851 12.7821 2.91495 12.9068 2.89299 13.028C2.87102 13.1492 2.82125 13.2636 2.74762 13.3621C2.674 13.4606 2.57854 13.5405 2.46882 13.5955C2.35909 13.6506 2.23812 13.6791 2.11549 13.679ZM19.7936 13.6692C19.6709 13.6693 19.5499 13.6407 19.4402 13.5856C19.3304 13.5305 19.2349 13.4504 19.1613 13.3518C19.0878 13.2531 19.0381 13.1386 19.0162 13.0173C18.9944 12.896 19.001 12.7713 19.0355 12.653C19.2609 11.8785 19.3749 11.0756 19.3742 10.2687V10.252C19.3738 10.1478 19.3938 10.0446 19.4331 9.94825C19.4723 9.85187 19.5302 9.7642 19.6032 9.69026C19.6762 9.61632 19.763 9.55755 19.8586 9.51731C19.9542 9.47707 20.0568 9.45614 20.1605 9.45572H20.1636C20.3725 9.45572 20.5728 9.53885 20.7208 9.6869C20.8687 9.83495 20.9523 10.0359 20.9531 10.2457V10.2687C20.9538 11.226 20.8183 12.1785 20.5508 13.0974C20.5029 13.262 20.4033 13.4065 20.2668 13.5094C20.1303 13.6123 19.9643 13.668 19.7936 13.6682V13.6692ZM2.11102 8.46513C1.98838 8.46523 1.86741 8.43662 1.7577 8.38158C1.64798 8.32653 1.55254 8.24657 1.47894 8.14802C1.40533 8.04948 1.3556 7.93506 1.33367 7.81385C1.31174 7.69264 1.31822 7.56796 1.3526 7.4497C1.61972 6.52996 2.01693 5.65354 2.53207 4.84725C2.64521 4.67025 2.8237 4.54564 3.02829 4.50085C3.12959 4.47867 3.23425 4.47675 3.33629 4.4952C3.43833 4.51366 3.53575 4.55212 3.62299 4.6084C3.71024 4.66467 3.78559 4.73766 3.84475 4.82319C3.90392 4.90873 3.94573 5.00513 3.96781 5.1069C3.98989 5.20866 3.9918 5.3138 3.97343 5.41631C3.95506 5.51882 3.91678 5.61669 3.86076 5.70433C3.4268 6.38262 3.09223 7.1201 2.86734 7.8941C2.81958 8.05858 2.72009 8.2031 2.58376 8.30604C2.44742 8.40898 2.28157 8.46479 2.11102 8.46513ZM19.7876 8.43632C19.6173 8.43624 19.4515 8.38082 19.3151 8.27833C19.1787 8.17585 19.079 8.03179 19.0308 7.86766C18.8034 7.09453 18.4666 6.35823 18.0308 5.68134C17.9247 5.50492 17.8911 5.29395 17.9372 5.0931C17.9832 4.89225 18.1053 4.71731 18.2776 4.60534C18.4498 4.49337 18.6587 4.45316 18.86 4.49323C19.0612 4.53331 19.239 4.65051 19.3558 4.82002C19.8741 5.62442 20.2745 6.49954 20.5447 7.4185C20.604 7.62022 20.5811 7.83735 20.4811 8.02213C20.3811 8.20691 20.2121 8.3442 20.0113 8.4038C19.9385 8.42528 19.8631 8.43623 19.7873 8.43632H19.7876ZM4.91234 4.07688C4.75152 4.07691 4.59453 4.0276 4.46238 3.93555C4.33022 3.84351 4.2292 3.71311 4.17282 3.56181C4.11645 3.41051 4.10741 3.24552 4.14692 3.08892C4.18643 2.93231 4.27261 2.79157 4.39391 2.68551C5.11312 2.05678 5.9181 1.53456 6.78444 1.13473C6.87908 1.08801 6.98209 1.06082 7.08736 1.05476C7.19264 1.04869 7.29806 1.06388 7.3974 1.09942C7.49674 1.13495 7.58799 1.19012 7.66575 1.26167C7.74352 1.33322 7.80623 1.41969 7.85018 1.51598C7.89414 1.61228 7.91844 1.71644 7.92166 1.82233C7.92489 1.92822 7.90696 2.03368 7.86894 2.13249C7.83093 2.2313 7.77359 2.32146 7.70032 2.39764C7.62705 2.47383 7.53933 2.5345 7.44233 2.57606C6.71276 2.91305 6.03479 3.3529 5.42891 3.88231C5.28578 4.00773 5.10227 4.07685 4.91234 4.07688ZM16.9715 4.05758C16.7821 4.05778 16.5989 3.98925 16.4558 3.8646C15.8483 3.33697 15.1689 2.89924 14.4381 2.5647C14.2525 2.47451 14.1093 2.31492 14.0392 2.12005C13.9692 1.92519 13.9778 1.71053 14.0633 1.52198C14.1488 1.33343 14.3043 1.18597 14.4966 1.11113C14.6889 1.03629 14.9027 1.04001 15.0923 1.12151C15.9597 1.51864 16.7661 2.03827 17.4871 2.66463C17.609 2.77042 17.6957 2.91114 17.7357 3.0679C17.7757 3.22465 17.767 3.38994 17.7107 3.54158C17.6545 3.69322 17.5535 3.82396 17.4211 3.91624C17.2888 4.00852 17.1316 4.05793 16.9705 4.05785L16.9715 4.05758ZM9.62681 1.90404C9.42707 1.90409 9.23474 1.82809 9.08857 1.69134C8.9424 1.55459 8.85326 1.36727 8.83911 1.16712C8.82496 0.966968 8.88685 0.768869 9.01232 0.612742C9.13778 0.456614 9.31749 0.354065 9.51523 0.325759C10.4582 0.189811 11.4155 0.188298 12.3589 0.321265C12.4624 0.334804 12.5622 0.368825 12.6525 0.42136C12.7429 0.473895 12.8219 0.543902 12.8851 0.62733C12.9484 0.710757 12.9945 0.80595 13.0208 0.907401C13.0472 1.00885 13.0533 1.11455 13.0387 1.21837C13.0242 1.3222 12.9893 1.42209 12.936 1.51228C12.8828 1.60246 12.8123 1.68115 12.7286 1.74378C12.6449 1.80642 12.5496 1.85175 12.4484 1.87717C12.3471 1.90259 12.2418 1.90759 12.1386 1.89188C11.3429 1.78031 10.5356 1.78164 9.74023 1.89584C9.70267 1.9013 9.66476 1.90404 9.62681 1.90404Z" fill="white"/>
<path d="M10.9536 12.6989C12.2892 12.6989 13.372 11.6112 13.372 10.2694C13.372 8.92759 12.2892 7.83984 10.9536 7.83984C9.61792 7.83984 8.53516 8.92759 8.53516 10.2694C8.53516 11.6112 9.61792 12.6989 10.9536 12.6989Z" fill="white"/>
<path d="M10.955 16.3478C10.3211 16.3484 9.69099 16.2488 9.08787 16.0527C8.88868 15.9879 8.72328 15.8463 8.62806 15.6589C8.58091 15.5662 8.55241 15.465 8.54418 15.3612C8.53595 15.2573 8.54816 15.1529 8.58011 15.0538C8.61206 14.9547 8.66312 14.863 8.73039 14.7837C8.79765 14.7044 8.87979 14.6393 8.97212 14.5919C9.1586 14.4962 9.37526 14.4789 9.57445 14.5437C10.4734 14.8351 11.4408 14.8351 12.3397 14.5437C12.5386 14.4796 12.7546 14.4973 12.9405 14.5929C13.1265 14.6885 13.2671 14.8542 13.3317 15.0537C13.3963 15.2533 13.3795 15.4704 13.2851 15.6575C13.1906 15.8446 13.0262 15.9866 12.8279 16.0522C12.2229 16.249 11.5909 16.3488 10.955 16.3478ZM6.69998 14.172C6.57528 14.1724 6.45226 14.1431 6.34105 14.0864C6.22983 14.0298 6.13359 13.9474 6.06025 13.8461C5.30579 12.8093 4.90016 11.5579 4.90235 10.2736C4.90235 10.0633 4.98553 9.86157 5.13358 9.71284C5.28164 9.5641 5.48244 9.48054 5.69183 9.48054C5.90121 9.48054 6.10201 9.5641 6.25007 9.71284C6.39812 9.86157 6.4813 10.0633 6.4813 10.2736C6.4802 11.2218 6.77997 12.1456 7.33709 12.911C7.42293 13.0292 7.47455 13.169 7.48622 13.3149C7.49789 13.4607 7.46916 13.607 7.40321 13.7375C7.33726 13.8679 7.23666 13.9775 7.11255 14.0542C6.98844 14.1308 6.84565 14.1714 6.69998 14.1715V14.172ZM15.2134 14.1675C15.0678 14.1674 14.9251 14.1269 14.801 14.0504C14.6769 13.9739 14.5762 13.8644 14.5102 13.734C14.4442 13.6037 14.4154 13.4575 14.4269 13.3117C14.4384 13.1659 14.4898 13.0261 14.5755 12.9078C15.1323 12.1413 15.4312 11.2163 15.4287 10.2673V10.2559C15.4287 10.0456 15.5118 9.84386 15.6599 9.69513C15.8079 9.54639 16.0088 9.46283 16.2181 9.46283C16.4275 9.46283 16.6283 9.54639 16.7764 9.69513C16.9244 9.84386 17.0076 10.0456 17.0076 10.2559V10.2673C17.0108 11.5517 16.6061 12.8036 15.8523 13.841C15.779 13.9422 15.6829 14.0246 15.5719 14.0813C15.4608 14.1381 15.338 14.1676 15.2134 14.1675ZM6.69182 7.95804C6.5462 7.958 6.40343 7.9175 6.27929 7.84101C6.15516 7.76453 6.0545 7.65504 5.98845 7.52466C5.9224 7.39428 5.89354 7.24809 5.90505 7.10225C5.91656 6.95642 5.96799 6.81662 6.05367 6.69833C6.80595 5.66138 7.86301 4.88757 9.07603 4.48583C9.27255 4.42915 9.4833 4.45128 9.66391 4.54755C9.84452 4.64382 9.98091 4.80673 10.0444 5.00199C10.1078 5.19724 10.0934 5.40962 10.0041 5.59441C9.91487 5.7792 9.75772 5.92199 9.56577 5.99273C8.66895 6.29023 7.88756 6.86275 7.33156 7.6297C7.25838 7.73136 7.16223 7.81413 7.05102 7.87121C6.93981 7.92829 6.81671 7.95805 6.69182 7.95804ZM15.2079 7.9443C15.0835 7.94441 14.9609 7.91502 14.85 7.85851C14.7391 7.80201 14.6431 7.71998 14.5697 7.61912C14.0115 6.85384 13.2283 6.28379 12.3305 5.98929C12.2318 5.9573 12.1404 5.9061 12.0614 5.83861C11.9825 5.77112 11.9175 5.68867 11.8703 5.59596C11.823 5.50325 11.7944 5.4021 11.7861 5.29829C11.7777 5.19447 11.7898 5.09002 11.8217 4.9909C11.8535 4.89179 11.9045 4.79994 11.9717 4.72061C12.0389 4.64128 12.1209 4.57602 12.2132 4.52855C12.3055 4.48109 12.4062 4.45235 12.5095 4.44397C12.6129 4.4356 12.7168 4.44776 12.8155 4.47975C14.0297 4.87787 15.0891 5.64854 15.8444 6.68326C15.9304 6.80145 15.9821 6.94123 15.9939 7.08713C16.0057 7.23303 15.977 7.37936 15.9111 7.50991C15.8452 7.64046 15.7446 7.75014 15.6205 7.82681C15.4964 7.90348 15.3536 7.94414 15.2079 7.9443Z" fill="white"/>
<line x1="25.4551" y1="0.144531" x2="25.4551" y2="20.2224" stroke="white" stroke-opacity="0.2" stroke-width="1.00389"/>
</svg>
