<svg width="14" height="8" viewBox="0 0 14 8" fill="none" xmlns="http://www.w3.org/2000/svg">
<path fill-rule="evenodd" clip-rule="evenodd" d="M5.13021 3.99915V0.71875L6.06805 2.12464L7.00589 0.71875L7.94374 2.12464L8.88158 0.71875V3.99915H5.13021ZM3.25407 1.1962C1.68067 1.31626 0.441406 2.63017 0.441406 4.23334C0.441406 5.91565 1.80604 7.27943 3.4894 7.27943C5.09376 7.27943 6.4086 6.04065 6.52848 4.46798H5.11304C4.9989 5.26243 4.31508 5.87301 3.48856 5.87301C2.58213 5.87301 1.84733 5.13867 1.84733 4.23281C1.84733 3.40652 2.45872 2.72293 3.25407 2.60923V1.1962ZM10.515 7.27889C8.91057 7.27889 7.5957 6.04007 7.47586 4.46737H8.88947C9.00311 5.26237 9.68719 5.87354 10.5141 5.87354C11.4205 5.87354 12.1553 5.13919 12.1553 4.23334C12.1553 3.40756 11.5447 2.72431 10.7501 2.60996V1.19565C12.3236 1.31562 13.5629 2.62957 13.5629 4.23281C13.5629 5.91511 12.1983 7.27889 10.515 7.27889Z" fill="white"/>
</svg>
