<svg width="77" height="16" viewBox="0 0 77 16" fill="none" xmlns="http://www.w3.org/2000/svg">
<defs>
<linearGradient id="paint0_linear_11414_19949" x1="14.397" y1="14.5032" x2="3.58786" y2="0.435303" gradientUnits="userSpaceOnUse">
<stop stop-color="#3280F6"/>
<stop offset="0.984457" stop-color="#7DFFDE"/>
</linearGradient>
<linearGradient id="paint1_linear_11414_19949" x1="7.28404" y1="6.40577" x2="9.76736" y2="9.59442" gradientUnits="userSpaceOnUse">
<stop stop-color="#67DFBF"/>
<stop offset="1" stop-color="#32AFF6"/>
</linearGradient>
<linearGradient id="paint2_linear_11414_19949" x1="5.37492" y1="4.5423" x2="11.7759" y2="12.7838" gradientUnits="userSpaceOnUse">
<stop stop-color="#64D9BD"/>
<stop offset="0.270833" stop-color="#3D89EF"/>
</linearGradient>
</defs>
<path d="M7.54367 15.6346C7.51441 15.6347 7.48519 15.6325 7.45624 15.6282C6.71785 15.5233 5.99838 15.3119 5.32005 15.0006C5.17152 14.9321 5.05611 14.8072 4.99914 14.6533C4.94218 14.4994 4.94831 14.329 5.0162 14.1797C5.08408 14.0303 5.20817 13.9141 5.36125 13.8565C5.51432 13.799 5.68387 13.8047 5.8327 13.8726C6.40333 14.1344 7.00853 14.3123 7.62966 14.4006C7.78443 14.4224 7.92522 14.5024 8.0236 14.6244C8.12198 14.7464 8.17062 14.9013 8.15971 15.0579C8.14879 15.2146 8.07913 15.3612 7.9648 15.4682C7.85046 15.5753 7.69995 15.6347 7.54367 15.6346ZM9.59119 15.6334C9.4351 15.6333 9.28486 15.5738 9.17071 15.4668C9.05656 15.3599 8.98699 15.2134 8.97601 15.057C8.96503 14.9006 9.01346 14.7458 9.11154 14.6238C9.20961 14.5019 9.35006 14.4217 9.50458 14.3996C10.1255 14.3105 10.7304 14.132 11.3007 13.8697C11.4495 13.8012 11.6193 13.7949 11.7728 13.8522C11.9262 13.9094 12.0508 14.0256 12.119 14.1751C12.1872 14.3246 12.1935 14.4952 12.1365 14.6493C12.0795 14.8035 11.9638 14.9286 11.815 14.9971C11.137 15.309 10.4179 15.5211 9.67965 15.627C9.65063 15.6312 9.62134 15.6334 9.59201 15.6334H9.59119ZM3.85245 13.9437C3.70415 13.9438 3.5608 13.8901 3.44883 13.7924C2.88543 13.3026 2.39432 12.7346 1.99028 12.1056C1.94634 12.0372 1.91625 11.9608 1.90171 11.8807C1.88718 11.8006 1.8885 11.7184 1.90558 11.6388C1.92267 11.5592 1.9552 11.4837 2.0013 11.4168C2.04741 11.3498 2.10619 11.2926 2.1743 11.2485C2.2424 11.2043 2.3185 11.1741 2.39823 11.1595C2.47797 11.1449 2.55979 11.1462 2.63902 11.1634C2.71825 11.1806 2.79334 11.2132 2.85999 11.2596C2.92665 11.3059 2.98358 11.3649 3.02752 11.4333C3.36801 11.9632 3.78181 12.4418 4.25648 12.8546C4.35178 12.9373 4.4196 13.0473 4.45084 13.1699C4.48209 13.2924 4.47527 13.4217 4.43129 13.5402C4.38731 13.6588 4.30828 13.761 4.20481 13.8331C4.10134 13.9052 3.97839 13.9438 3.85245 13.9437ZM13.2806 13.9385C13.1548 13.9385 13.0321 13.8999 12.9287 13.8279C12.8254 13.7559 12.7465 13.6539 12.7025 13.5355C12.6585 13.4172 12.6515 13.2882 12.6825 13.1657C12.7135 13.0433 12.781 12.9333 12.8759 12.8505C13.3502 12.437 13.7635 11.9578 14.1034 11.4274C14.192 11.2891 14.3316 11.1918 14.4916 11.1569C14.6516 11.1221 14.8188 11.1525 14.9564 11.2415C15.0941 11.3304 15.1909 11.4707 15.2256 11.6314C15.2603 11.7921 15.2301 11.9601 15.1415 12.0984C14.7382 12.7279 14.2477 13.2964 13.6848 13.7869C13.5727 13.8849 13.429 13.9388 13.2804 13.9385H13.2806ZM1.65475 10.5193C1.52148 10.5192 1.39181 10.4758 1.28513 10.3956C1.17845 10.3153 1.10048 10.2026 1.0629 10.0741C0.85309 9.3559 0.746412 8.61128 0.746094 7.86279C0.746094 7.69836 0.811115 7.54066 0.926855 7.42439C1.04259 7.30811 1.19957 7.24279 1.36325 7.24279C1.52693 7.24279 1.68391 7.30811 1.79965 7.42439C1.91539 7.54066 1.98041 7.69836 1.98041 7.86279C1.98089 8.49337 2.07094 9.12065 2.24784 9.72567C2.27468 9.81812 2.27972 9.91558 2.26255 10.0103C2.24538 10.1051 2.20647 10.1945 2.14891 10.2715C2.09136 10.3485 2.01673 10.411 1.93096 10.454C1.84518 10.497 1.75062 10.5194 1.65475 10.5193ZM15.4743 10.5116C15.3784 10.5117 15.2838 10.4893 15.198 10.4462C15.1122 10.4031 15.0376 10.3406 14.98 10.2635C14.9225 10.1863 14.8837 10.0968 14.8666 10.002C14.8495 9.90718 14.8547 9.80967 14.8817 9.7172C15.0579 9.11173 15.147 8.48409 15.1464 7.85328V7.84026C15.1461 7.75884 15.1617 7.67816 15.1925 7.60281C15.2232 7.52747 15.2684 7.45893 15.3254 7.40113C15.3825 7.34333 15.4504 7.29739 15.5251 7.26593C15.5999 7.23447 15.6801 7.21811 15.7611 7.21779H15.7636C15.9268 7.21779 16.0834 7.28277 16.1991 7.3985C16.3148 7.51424 16.3801 7.6713 16.3807 7.8353V7.85328C16.3813 8.60168 16.2753 9.34631 16.0662 10.0646C16.0288 10.1932 15.9509 10.3063 15.8442 10.3867C15.7375 10.4671 15.6077 10.5107 15.4743 10.5108V10.5116ZM1.65126 6.44341C1.55539 6.44349 1.46082 6.42112 1.37505 6.37809C1.28929 6.33506 1.21467 6.27255 1.15714 6.19552C1.0996 6.11848 1.06072 6.02904 1.04358 5.93428C1.02643 5.83952 1.0315 5.74206 1.05838 5.64961C1.26719 4.93063 1.57771 4.2455 1.98041 3.6152C2.06885 3.47683 2.20839 3.37942 2.36832 3.3444C2.44751 3.32706 2.52932 3.32556 2.60909 3.33999C2.68886 3.35441 2.76502 3.38448 2.83322 3.42847C2.90142 3.47247 2.96032 3.52952 3.00657 3.59639C3.05282 3.66325 3.08551 3.73861 3.10277 3.81817C3.12003 3.89772 3.12152 3.97991 3.10717 4.06005C3.09281 4.14018 3.06288 4.21669 3.01908 4.28521C2.67985 4.81544 2.4183 5.39195 2.24249 5.99701C2.20516 6.12559 2.12739 6.23857 2.02081 6.31904C1.91423 6.39951 1.78458 6.44314 1.65126 6.44341ZM15.4696 6.42089C15.3365 6.42082 15.2069 6.3775 15.1003 6.29738C14.9936 6.21726 14.9156 6.10465 14.878 5.97635C14.7002 5.37197 14.437 4.79638 14.0962 4.26723C14.0133 4.12932 13.9871 3.96439 14.0231 3.80738C14.0591 3.65037 14.1545 3.51362 14.2892 3.42609C14.4238 3.33855 14.5871 3.30712 14.7445 3.33845C14.9018 3.36977 15.0408 3.4614 15.132 3.59391C15.5372 4.22273 15.8502 4.90684 16.0615 5.62522C16.1078 5.78292 16.09 5.95265 16.0118 6.0971C15.9336 6.24155 15.8014 6.34887 15.6445 6.39547C15.5876 6.41225 15.5287 6.42081 15.4694 6.42089H15.4696ZM3.84114 3.01297C3.71542 3.013 3.5927 2.97445 3.48939 2.90249C3.38608 2.83053 3.30711 2.7286 3.26304 2.61032C3.21897 2.49204 3.2119 2.36307 3.24279 2.24065C3.27368 2.11823 3.34104 2.0082 3.43587 1.92529C3.99809 1.43379 4.62738 1.02556 5.30462 0.712995C5.37861 0.676478 5.45913 0.655222 5.54143 0.650481C5.62373 0.64574 5.70614 0.65761 5.78379 0.685391C5.86145 0.713172 5.93278 0.756301 5.99357 0.812231C6.05437 0.868161 6.10339 0.93576 6.13775 1.01104C6.17211 1.08631 6.19111 1.16774 6.19363 1.25052C6.19615 1.33329 6.18213 1.41573 6.15241 1.49298C6.1227 1.57022 6.07787 1.6407 6.0206 1.70026C5.96332 1.75981 5.89474 1.80724 5.81892 1.83973C5.24859 2.10317 4.7186 2.44701 4.24496 2.86087C4.13307 2.95892 3.98962 3.01295 3.84114 3.01297ZM13.2682 2.99789C13.1201 2.99804 12.9769 2.94447 12.865 2.84702C12.3901 2.43456 11.859 2.09238 11.2878 1.83085C11.1426 1.76035 11.0307 1.63559 10.9759 1.48326C10.9212 1.33093 10.9279 1.16312 10.9947 1.01572C11.0616 0.868329 11.1831 0.753051 11.3335 0.694546C11.4838 0.636041 11.651 0.638954 11.7992 0.702661C12.4772 1.01311 13.1076 1.41932 13.6712 1.90897C13.7665 1.99167 13.8343 2.10168 13.8656 2.22422C13.8968 2.34676 13.89 2.47597 13.8461 2.59451C13.8021 2.71305 13.7231 2.81525 13.6197 2.88739C13.5162 2.95953 13.3933 2.99816 13.2674 2.99809L13.2682 2.99789ZM7.52659 1.31439C7.37045 1.31443 7.2201 1.25502 7.10584 1.14812C6.99157 1.04122 6.92188 0.894781 6.91082 0.738317C6.89976 0.581853 6.94815 0.426992 7.04623 0.304942C7.14431 0.182892 7.28479 0.102726 7.43937 0.0805986C8.17651 -0.0256762 8.9249 -0.0268589 9.66237 0.0770853C9.74328 0.0876693 9.82129 0.114265 9.8919 0.155333C9.96251 0.196402 10.0243 0.251128 10.0737 0.316346C10.1232 0.381564 10.1592 0.45598 10.1798 0.535287C10.2004 0.614595 10.2052 0.697221 10.1938 0.778385C10.1824 0.859549 10.1551 0.93764 10.1135 1.00814C10.0719 1.07864 10.0168 1.14015 9.95134 1.18911C9.8859 1.23808 9.81146 1.27352 9.7323 1.29339C9.65314 1.31326 9.57085 1.31717 9.49018 1.30488C8.86815 1.21767 8.237 1.21871 7.61526 1.30798C7.5859 1.31225 7.55626 1.31439 7.52659 1.31439Z" fill="url(#paint0_linear_11414_19949)"/>
<path d="M8.56243 9.75163C9.60656 9.75163 10.453 8.90131 10.453 7.85238C10.453 6.80345 9.60656 5.95312 8.56243 5.95312C7.51831 5.95312 6.67188 6.80345 6.67188 7.85238C6.67188 8.90131 7.51831 9.75163 8.56243 9.75163Z" fill="url(#paint1_linear_11414_19949)"/>
<path d="M8.56357 12.6084C8.06802 12.6089 7.57548 12.531 7.104 12.3777C6.94828 12.3271 6.81899 12.2163 6.74455 12.0699C6.70769 11.9974 6.68541 11.9183 6.67897 11.8371C6.67254 11.756 6.68209 11.6743 6.70706 11.5969C6.73204 11.5194 6.77196 11.4476 6.82454 11.3857C6.87712 11.3237 6.94133 11.2728 7.01351 11.2357C7.15928 11.161 7.32866 11.1474 7.48437 11.1981C8.18711 11.4258 8.94333 11.4258 9.64607 11.1981C9.80153 11.148 9.97042 11.1618 10.1158 11.2365C10.2611 11.3113 10.371 11.4408 10.4215 11.5968C10.472 11.7527 10.4589 11.9225 10.3851 12.0688C10.3113 12.2151 10.1827 12.326 10.0277 12.3773C9.55476 12.5312 9.06066 12.6091 8.56357 12.6084ZM5.2373 10.9075C5.13982 10.9078 5.04365 10.8849 4.95671 10.8406C4.86977 10.7963 4.79454 10.7319 4.7372 10.6527C4.14741 9.84226 3.83033 8.86396 3.83204 7.86003C3.83204 7.6956 3.89706 7.5379 4.0128 7.42163C4.12854 7.30536 4.28551 7.24004 4.4492 7.24004C4.61288 7.24004 4.76985 7.30536 4.88559 7.42163C5.00133 7.5379 5.06635 7.6956 5.06635 7.86003C5.06549 8.60124 5.29983 9.32343 5.73535 9.92173C5.80246 10.0141 5.84281 10.1234 5.85193 10.2374C5.86105 10.3515 5.83859 10.4658 5.78704 10.5678C5.73548 10.6698 5.65685 10.7555 5.55982 10.8154C5.4628 10.8753 5.35118 10.907 5.2373 10.9071V10.9075ZM11.8925 10.904C11.7787 10.9039 11.6671 10.8722 11.5701 10.8124C11.4731 10.7526 11.3944 10.667 11.3428 10.5651C11.2912 10.4632 11.2687 10.3489 11.2777 10.235C11.2867 10.121 11.3269 10.0117 11.3939 9.91925C11.8291 9.32001 12.0628 8.5969 12.0608 7.85507V7.84619C12.0608 7.68175 12.1258 7.52405 12.2416 7.40778C12.3573 7.29151 12.5143 7.22619 12.678 7.22619C12.8416 7.22619 12.9986 7.29151 13.1144 7.40778C13.2301 7.52405 13.2951 7.68175 13.2951 7.84619V7.85507C13.2976 8.85912 12.9812 9.83778 12.392 10.6488C12.3347 10.7279 12.2596 10.7923 12.1728 10.8366C12.0859 10.881 11.9899 10.9041 11.8925 10.904ZM5.23093 6.04985C5.11709 6.04982 5.00548 6.01816 4.90844 5.95836C4.8114 5.89857 4.73271 5.81298 4.68108 5.71106C4.62945 5.60914 4.60688 5.49486 4.61588 5.38085C4.62487 5.26685 4.66508 5.15757 4.73206 5.06509C5.32014 4.25448 6.14648 3.64956 7.09474 3.33551C7.24837 3.2912 7.41311 3.3085 7.5543 3.38376C7.69549 3.45902 7.80211 3.58637 7.85172 3.73901C7.90132 3.89164 7.89005 4.05766 7.82027 4.20212C7.75049 4.34658 7.62764 4.4582 7.47758 4.5135C6.77651 4.74607 6.16568 5.19362 5.73103 5.79317C5.67382 5.87264 5.59866 5.93735 5.51172 5.98197C5.42479 6.02659 5.32855 6.04985 5.23093 6.04985ZM11.8882 6.0391C11.791 6.03919 11.6951 6.01622 11.6085 5.97204C11.5218 5.92787 11.4467 5.86375 11.3893 5.78491C10.9529 5.18666 10.3407 4.74103 9.63887 4.51081C9.56174 4.4858 9.49027 4.44578 9.42854 4.39302C9.36681 4.34026 9.31602 4.27581 9.27909 4.20334C9.24215 4.13086 9.21979 4.05179 9.21327 3.97063C9.20676 3.88948 9.21622 3.80783 9.24111 3.73034C9.26601 3.65286 9.30585 3.58106 9.35836 3.51904C9.41088 3.45703 9.47504 3.40601 9.54718 3.36891C9.61932 3.3318 9.69803 3.30933 9.77882 3.30279C9.8596 3.29624 9.94088 3.30574 10.018 3.33075C10.9672 3.64198 11.7954 4.24444 12.3858 5.05331C12.453 5.1457 12.4935 5.25497 12.5027 5.36903C12.5119 5.48308 12.4895 5.59747 12.438 5.69953C12.3864 5.80158 12.3078 5.88733 12.2108 5.94726C12.1138 6.00719 12.0021 6.03898 11.8882 6.0391Z" fill="url(#paint2_linear_11414_19949)"/>
<path d="M28.6201 13.3293C27.6886 13.3293 26.8165 13.0891 26.0039 12.6086C25.1912 12.1181 24.5421 11.4625 24.0565 10.6417C23.5709 9.8209 23.3281 8.93503 23.3281 7.98411C23.3281 7.03319 23.5709 6.15233 24.0565 5.34154C24.5421 4.52074 25.1912 3.87011 26.0039 3.38964C26.8165 2.89917 27.6886 2.65393 28.6201 2.65393C29.5616 2.65393 30.4386 2.89917 31.2513 3.38964C32.0639 3.87011 32.7081 4.52074 33.1837 5.34154C33.6693 6.15233 33.9121 7.03319 33.9121 7.98411C33.9121 8.93503 33.6693 9.8209 33.1837 10.6417C32.7081 11.4625 32.0639 12.1181 31.2513 12.6086C30.4386 13.0891 29.5616 13.3293 28.6201 13.3293ZM28.6201 11.9329C29.294 11.9329 29.9184 11.7528 30.4931 11.3924C31.0679 11.0321 31.5238 10.5516 31.8607 9.95102C32.2076 9.34043 32.381 8.68479 32.381 7.98411C32.381 7.28343 32.2076 6.6328 31.8607 6.03221C31.5238 5.43163 31.0679 4.95116 30.4931 4.59081C29.9184 4.23046 29.294 4.05029 28.6201 4.05029C27.9562 4.05029 27.3318 4.23046 26.7471 4.59081C26.1723 4.95116 25.7115 5.43163 25.3647 6.03221C25.0277 6.6328 24.8592 7.28343 24.8592 7.98411C24.8592 8.68479 25.0277 9.34043 25.3647 9.95102C25.7115 10.5516 26.1723 11.0321 26.7471 11.3924C27.3318 11.7528 27.9562 11.9329 28.6201 11.9329Z" fill="#4A5568"/>
<path d="M39.3917 5.20641C39.9467 5.20641 40.4422 5.33153 40.8782 5.58178C41.3143 5.83202 41.6512 6.18736 41.8891 6.64781C42.1368 7.09825 42.2607 7.61875 42.2607 8.20933V13.1491H40.8188V8.46458C40.8188 7.88401 40.6552 7.41356 40.3282 7.05321C40.0012 6.68285 39.575 6.49767 39.0498 6.49767C38.6633 6.49767 38.3065 6.58275 37.9795 6.75291C37.6525 6.91307 37.3948 7.13328 37.2065 7.41355C37.0182 7.69383 36.9241 7.99912 36.9241 8.32945V13.1491H35.4673V5.38659H36.9241V6.52769C37.152 6.12731 37.489 5.80699 37.9349 5.56676C38.3809 5.32653 38.8665 5.20641 39.3917 5.20641Z" fill="#4A5568"/>
<path d="M47.4111 12.0981C47.8373 12.0981 48.2634 12.018 48.6895 11.8579C49.1157 11.6877 49.4526 11.4725 49.7004 11.2122L50.5626 12.1281C50.2256 12.4885 49.7598 12.7788 49.1652 12.999C48.5805 13.2192 48.0107 13.3293 47.4557 13.3293C46.7422 13.3293 46.0832 13.1541 45.4787 12.8038C44.8741 12.4535 44.3885 11.968 44.0219 11.3474C43.6651 10.7268 43.4867 10.0261 43.4867 9.24534C43.4867 8.4846 43.6552 7.79893 43.9921 7.18834C44.339 6.56773 44.8048 6.08226 45.3895 5.73192C45.9841 5.38158 46.6332 5.20641 47.3368 5.20641C48.1098 5.20641 48.7738 5.39159 49.3287 5.76195C49.8936 6.13231 50.3198 6.65782 50.6071 7.33848C50.9044 8.01914 51.0531 8.81992 51.0531 9.74082H44.9286C45.0178 10.4315 45.2854 10.997 45.7314 11.4375C46.1872 11.8779 46.7472 12.0981 47.4111 12.0981ZM47.3814 6.43761C46.767 6.43761 46.2318 6.6378 45.776 7.03819C45.33 7.43858 45.0525 7.9741 44.9435 8.64475H49.626C49.5468 7.99412 49.3139 7.4636 48.9274 7.05321C48.5409 6.64281 48.0256 6.43761 47.3814 6.43761Z" fill="#4A5568"/>
<path d="M54.1196 11.7378H59.5306V13.1491H52.6182V2.8341H54.1196V11.7378Z" fill="#4A5568"/>
<path d="M61.0168 5.38659H62.4736V13.1491H61.0168V5.38659ZM61.7452 4.09533C61.4975 4.09533 61.2844 4.00524 61.106 3.82507C60.9376 3.64489 60.8533 3.43469 60.8533 3.19445C60.8533 2.95422 60.9376 2.74902 61.106 2.57886C61.2844 2.39868 61.4975 2.30859 61.7452 2.30859C61.9831 2.30859 62.1862 2.39868 62.3547 2.57886C62.5331 2.74902 62.6223 2.95422 62.6223 3.19445C62.6223 3.43469 62.5331 3.64489 62.3547 3.82507C62.1862 4.00524 61.9831 4.09533 61.7452 4.09533Z" fill="#4A5568"/>
<path d="M66.3373 5.38659H68.1509V6.64781H66.3373V13.1491H64.8954V6.64781H63.7508V5.38659H64.8954V4.45568C64.8954 3.83508 65.0837 3.32959 65.4603 2.93921C65.8368 2.53882 66.3224 2.33862 66.917 2.33862C67.1945 2.33862 67.4671 2.38867 67.7346 2.48877C68.0121 2.58887 68.2549 2.724 68.463 2.89416L67.913 3.88513C67.8337 3.80505 67.7247 3.73999 67.586 3.68994C67.4472 3.62988 67.2986 3.59985 67.14 3.59985C66.922 3.59985 66.7337 3.68994 66.5751 3.87011C66.4166 4.04028 66.3373 4.26049 66.3373 4.53075V5.38659Z" fill="#4A5568"/>
<path d="M72.6703 12.0981C73.0965 12.0981 73.5226 12.018 73.9487 11.8579C74.3749 11.6877 74.7118 11.4725 74.9596 11.2122L75.8218 12.1281C75.4848 12.4885 75.019 12.7788 74.4244 12.999C73.8397 13.2192 73.2699 13.3293 72.7149 13.3293C72.0014 13.3293 71.3424 13.1541 70.7379 12.8038C70.1333 12.4535 69.6478 11.968 69.2811 11.3474C68.9243 10.7268 68.7459 10.0261 68.7459 9.24534C68.7459 8.4846 68.9144 7.79893 69.2513 7.18834C69.5982 6.56773 70.064 6.08226 70.6487 5.73192C71.2433 5.38158 71.8924 5.20641 72.596 5.20641C73.369 5.20641 74.033 5.39159 74.588 5.76195C75.1528 6.13231 75.579 6.65782 75.8664 7.33848C76.1637 8.01914 76.3123 8.81992 76.3123 9.74082H70.1879C70.277 10.4315 70.5446 10.997 70.9906 11.4375C71.4464 11.8779 72.0064 12.0981 72.6703 12.0981ZM72.6406 6.43761C72.0262 6.43761 71.491 6.6378 71.0352 7.03819C70.5892 7.43858 70.3117 7.9741 70.2027 8.64475H74.8853C74.806 7.99412 74.5731 7.4636 74.1866 7.05321C73.8001 6.64281 73.2848 6.43761 72.6406 6.43761Z" fill="#4A5568"/>

</svg>
