<svg width="18" height="18" viewBox="0 0 18 18" fill="none" xmlns="http://www.w3.org/2000/svg">
<path d="M15.668 12.668H17.3346V14.3346H0.667969V12.668H2.33464V6.83464C2.33464 5.06653 3.03701 3.37083 4.28726 2.12059C5.5375 0.870348 7.23319 0.167969 9.0013 0.167969C10.7694 0.167969 12.4651 0.870348 13.7153 2.12059C14.9656 3.37083 15.668 5.06653 15.668 6.83464V12.668ZM14.0013 12.668V6.83464C14.0013 5.50855 13.4745 4.23678 12.5368 3.2991C11.5992 2.36142 10.3274 1.83464 9.0013 1.83464C7.67522 1.83464 6.40345 2.36142 5.46577 3.2991C4.52809 4.23678 4.0013 5.50855 4.0013 6.83464V12.668H14.0013ZM6.5013 16.0013H11.5013V17.668H6.5013V16.0013Z" fill="#4A5568"/>
</svg>
