<svg width="17" height="16" viewBox="0 0 17 16" fill="none" xmlns="http://www.w3.org/2000/svg">
<path d="M0.167969 1.33333C0.167969 1.11232 0.255766 0.900358 0.412046 0.744078C0.568327 0.587797 0.780288 0.5 1.0013 0.5H16.0013C16.2223 0.5 16.4343 0.587797 16.5906 0.744078C16.7468 0.900358 16.8346 1.11232 16.8346 1.33333V5.91667C16.2821 5.91667 15.7522 6.13616 15.3615 6.52686C14.9708 6.91756 14.7513 7.44747 14.7513 8C14.7513 8.55253 14.9708 9.08244 15.3615 9.47314C15.7522 9.86384 16.2821 10.0833 16.8346 10.0833V14.6667C16.8346 14.8877 16.7468 15.0996 16.5906 15.2559C16.4343 15.4122 16.2223 15.5 16.0013 15.5H1.0013C0.780288 15.5 0.568327 15.4122 0.412046 15.2559C0.255766 15.0996 0.167969 14.8877 0.167969 14.6667V1.33333ZM5.2388 13.8333C5.32469 13.5892 5.48426 13.3777 5.69548 13.2281C5.90669 13.0785 6.15914 12.9981 6.41797 12.9981C6.6768 12.9981 6.92925 13.0785 7.14046 13.2281C7.35168 13.3777 7.51124 13.5892 7.59714 13.8333H15.168V11.36C14.542 11.0498 14.0151 10.5708 13.6467 9.97712C13.2784 9.38344 13.0832 8.69867 13.0832 8C13.0832 7.30133 13.2784 6.61656 13.6467 6.02288C14.0151 5.42921 14.542 4.95025 15.168 4.64V2.16667H7.59714C7.51124 2.41083 7.35168 2.62231 7.14046 2.77191C6.92925 2.92151 6.6768 3.00186 6.41797 3.00186C6.15914 3.00186 5.90669 2.92151 5.69548 2.77191C5.48426 2.62231 5.32469 2.41083 5.2388 2.16667H1.83464V13.8333H5.2388ZM6.41797 7.16667C6.08645 7.16667 5.76851 7.03497 5.53409 6.80055C5.29966 6.56613 5.16797 6.24819 5.16797 5.91667C5.16797 5.58515 5.29966 5.2672 5.53409 5.03278C5.76851 4.79836 6.08645 4.66667 6.41797 4.66667C6.74949 4.66667 7.06743 4.79836 7.30185 5.03278C7.53627 5.2672 7.66797 5.58515 7.66797 5.91667C7.66797 6.24819 7.53627 6.56613 7.30185 6.80055C7.06743 7.03497 6.74949 7.16667 6.41797 7.16667ZM6.41797 11.3333C6.08645 11.3333 5.76851 11.2016 5.53409 10.9672C5.29966 10.7328 5.16797 10.4149 5.16797 10.0833C5.16797 9.75181 5.29966 9.43387 5.53409 9.19945C5.76851 8.96503 6.08645 8.83333 6.41797 8.83333C6.74949 8.83333 7.06743 8.96503 7.30185 9.19945C7.53627 9.43387 7.66797 9.75181 7.66797 10.0833C7.66797 10.4149 7.53627 10.7328 7.30185 10.9672C7.06743 11.2016 6.74949 11.3333 6.41797 11.3333Z" fill="#3280F6"/>
</svg>
