<svg width="19" height="18" viewBox="0 0 19 18" fill="none" xmlns="http://www.w3.org/2000/svg">
<path d="M0.835938 1.995C0.835938 0.893 1.72894 0 2.83094 0H16.8409C17.9429 0 18.8359 0.893 18.8359 1.995V16.005C18.8359 16.5341 18.6258 17.0415 18.2516 17.4157C17.8775 17.7898 17.37 18 16.8409 18H2.83094C2.30183 18 1.79439 17.7898 1.42026 17.4157C1.04612 17.0415 0.835938 16.5341 0.835938 16.005V1.995ZM2.83594 2V16H16.8359V2H2.83594ZM5.80794 15.18C5.19292 14.9136 4.60629 14.586 4.05694 14.202C4.6912 13.219 5.5619 12.4108 6.58933 11.8514C7.61676 11.292 8.76809 10.9993 9.93794 11C12.3379 11 14.4549 12.207 15.7159 14.047C15.1771 14.4456 14.5995 14.789 13.9919 15.072C13.5288 14.43 12.9197 13.9073 12.2148 13.547C11.51 13.1868 10.7295 12.9993 9.93794 13C8.22294 13 6.70794 13.864 5.80794 15.18ZM9.83594 10C9.37631 10 8.92119 9.90947 8.49655 9.73358C8.07191 9.55769 7.68607 9.29988 7.36106 8.97487C7.03606 8.64987 6.77825 8.26403 6.60236 7.83939C6.42647 7.41475 6.33594 6.95963 6.33594 6.5C6.33594 6.04037 6.42647 5.58525 6.60236 5.16061C6.77825 4.73597 7.03606 4.35013 7.36106 4.02513C7.68607 3.70012 8.07191 3.44231 8.49655 3.26642C8.92119 3.09053 9.37631 3 9.83594 3C10.7642 3 11.6544 3.36875 12.3108 4.02513C12.9672 4.6815 13.3359 5.57174 13.3359 6.5C13.3359 7.42826 12.9672 8.3185 12.3108 8.97487C11.6544 9.63125 10.7642 10 9.83594 10ZM9.83594 8C10.2338 8 10.6153 7.84196 10.8966 7.56066C11.1779 7.27936 11.3359 6.89782 11.3359 6.5C11.3359 6.10218 11.1779 5.72064 10.8966 5.43934C10.6153 5.15804 10.2338 5 9.83594 5C9.43811 5 9.05658 5.15804 8.77528 5.43934C8.49397 5.72064 8.33594 6.10218 8.33594 6.5C8.33594 6.89782 8.49397 7.27936 8.77528 7.56066C9.05658 7.84196 9.43811 8 9.83594 8Z" fill="#718096"/>
</svg>
