<svg width="19" height="17" viewBox="0 0 19 17" fill="none" xmlns="http://www.w3.org/2000/svg">
<path d="M2.66056 5.72037L3.73222 14.8329H15.7689L16.8406 5.72037L13.4989 7.94787L9.75056 2.70037L6.00222 7.94787L2.66056 5.72037ZM2.08472 3.33287L5.58389 5.66621L9.07222 0.782873C9.14931 0.674847 9.25108 0.586794 9.36907 0.526042C9.48705 0.465289 9.61785 0.433594 9.75056 0.433594C9.88327 0.433594 10.0141 0.465289 10.132 0.526042C10.25 0.586794 10.3518 0.674847 10.4289 0.782873L13.9172 5.66621L17.4172 3.33287C17.5497 3.24475 17.7046 3.19638 17.8637 3.19349C18.0228 3.1906 18.1793 3.2333 18.3149 3.31656C18.4505 3.39981 18.5594 3.52014 18.6288 3.66332C18.6981 3.8065 18.7251 3.96654 18.7064 4.12454L17.3372 15.7637C17.3133 15.9664 17.2159 16.1533 17.0634 16.2889C16.9108 16.4246 16.7138 16.4995 16.5097 16.4995H2.99139C2.78728 16.4995 2.59027 16.4246 2.43775 16.2889C2.28522 16.1533 2.18777 15.9664 2.16389 15.7637L0.794722 4.12371C0.776222 3.96578 0.803293 3.80585 0.872739 3.6628C0.942186 3.51976 1.05111 3.39957 1.18665 3.31642C1.32219 3.23328 1.47869 3.19064 1.63767 3.19356C1.79666 3.19647 1.95149 3.24481 2.08389 3.33287H2.08472ZM9.75056 11.4995C9.30853 11.4995 8.88461 11.3239 8.57204 11.0114C8.25948 10.6988 8.08389 10.2749 8.08389 9.83287C8.08389 9.39085 8.25948 8.96692 8.57204 8.65436C8.88461 8.3418 9.30853 8.16621 9.75056 8.16621C10.1926 8.16621 10.6165 8.3418 10.9291 8.65436C11.2416 8.96692 11.4172 9.39085 11.4172 9.83287C11.4172 10.2749 11.2416 10.6988 10.9291 11.0114C10.6165 11.3239 10.1926 11.4995 9.75056 11.4995Z" fill="#D69E2E"/>
</svg>
