<svg width="24" height="19" viewBox="0 0 24 19" fill="none" xmlns="http://www.w3.org/2000/svg">
<path d="M4.87303 9.67143e-09H19.127C19.2848 -2.19333e-05 19.4404 0.0372955 19.581 0.108902C19.7216 0.180508 19.8433 0.284371 19.936 0.412L23.759 5.668C23.827 5.76152 23.8605 5.8757 23.8537 5.99112C23.847 6.10653 23.8004 6.21603 23.722 6.301L12.367 18.602C12.2771 18.6992 12.1522 18.7568 12.0198 18.7621C11.8875 18.7673 11.7584 18.7198 11.661 18.63C11.654 18.624 7.86103 14.515 0.278033 6.301C0.199637 6.21603 0.153106 6.10653 0.14636 5.99112C0.139614 5.8757 0.17307 5.76152 0.241033 5.668L4.06403 0.412C4.15681 0.284371 4.27848 0.180508 4.41908 0.108902C4.55969 0.0372955 4.71524 -2.19333e-05 4.87303 9.67143e-09ZM5.38303 2L2.58303 5.85L12 16.05L21.417 5.85L18.617 2H5.38303Z" fill="#2D3748"/>
</svg>

