<svg width="25" height="24" viewBox="0 0 25 24" fill="none" xmlns="http://www.w3.org/2000/svg">
<path d="M18.168 7H21.168C21.4332 7 21.6875 7.10536 21.8751 7.29289C22.0626 7.48043 22.168 7.73478 22.168 8V20C22.168 20.2652 22.0626 20.5196 21.8751 20.7071C21.6875 20.8946 21.4332 21 21.168 21H3.16797C2.90275 21 2.6484 20.8946 2.46086 20.7071C2.27333 20.5196 2.16797 20.2652 2.16797 20V4C2.16797 3.73478 2.27333 3.48043 2.46086 3.29289C2.6484 3.10536 2.90275 3 3.16797 3H18.168V7ZM4.16797 9V19H20.168V9H4.16797ZM4.16797 5V7H16.168V5H4.16797ZM15.168 13H18.168V15H15.168V13Z" fill="#718096"/>
</svg>
